<?xml version="1.0" encoding="UTF-8"?>
<svg version="1.1" xmlns="http://www.w3.org/2000/svg" width="262" height="285">
<path d="M0 0 C1.51769045 -0.0013581 3.03538056 -0.00314032 4.55307007 -0.00531006 C8.64901629 -0.00984124 12.74493711 -0.00811122 16.84088373 -0.00493097 C21.16132832 -0.00237848 25.48177089 -0.00475349 29.80221558 -0.00631714 C37.06997054 -0.00813318 44.33771533 -0.00575021 51.60546875 -0.00097656 C59.94115561 0.00443624 68.27681789 0.00272294 76.61250412 -0.00280297 C83.81900397 -0.00738482 91.02549653 -0.00795931 98.23199737 -0.0053643 C102.51335352 -0.00382539 106.79469826 -0.00354005 111.07605362 -0.00690079 C126.4252908 -0.01706956 141.776598 -0.01613134 157.12011719 0.45019531 C158.63564776 0.48314099 158.63564776 0.48314099 160.18179512 0.51675224 C166.04284603 0.73837286 169.8405563 1.41086201 174.19091797 5.62939453 C179.56025624 12.32363445 179.3630839 18.7789325 178.64404297 27.12939453 C177.3554816 30.54316612 175.20952909 32.56390841 172.64404297 35.12939453 C172.64404297 39.82554946 175.42574033 42.71294542 178.26904297 46.16455078 C179.70920469 48.22250915 180.39482088 49.6319815 180.64404297 52.12939453 C177.48210335 55.29133415 173.50533162 54.62734644 169.25854492 54.63134766 C166.44073868 54.54147199 164.13375728 54.38555279 161.61279297 53.06689453 C158.39141655 49.45266733 157.51913444 44.7435132 156.64404297 40.12939453 C152.35404297 40.12939453 148.06404297 40.12939453 143.64404297 40.12939453 C142.10977528 43.19792991 142.25464424 46.42527375 142.02294922 49.81689453 C141.64404297 52.12939453 141.64404297 52.12939453 139.64404297 54.12939453 C137.07763672 54.35986328 137.07763672 54.35986328 134.08154297 54.31689453 C133.09025391 54.31044922 132.09896484 54.30400391 131.07763672 54.29736328 C128.64404297 54.12939453 128.64404297 54.12939453 127.64404297 53.12939453 C124.39144727 31.80682273 124.39144727 31.80682273 128.64404297 25.12939453 C135.09006889 22.90992267 143.21325306 24.12282409 149.96630859 24.25634766 C151.0059375 24.26730469 152.04556641 24.27826172 153.11669922 24.28955078 C154.05779541 24.30638916 154.9988916 24.32322754 155.96850586 24.34057617 C158.87000425 24.11155928 161.01177597 23.33889512 163.64404297 22.12939453 C163.64404297 20.47939453 163.64404297 18.82939453 163.64404297 17.12939453 C160.37088788 15.49281699 156.73782066 15.88631383 153.13623047 15.81298828 C152.29561066 15.79220718 151.45499084 15.77142609 150.58889771 15.75001526 C147.89903062 15.68454014 145.20906454 15.62564433 142.51904297 15.56689453 C140.69741808 15.52370737 138.87580326 15.48009301 137.05419922 15.43603516 C132.58424903 15.32886085 128.11419911 15.22758768 123.64404297 15.12939453 C123.6650708 15.80631348 123.68609863 16.48323242 123.70776367 17.18066406 C123.73229614 18.52040283 123.73229614 18.52040283 123.75732422 19.88720703 C123.77835205 20.77037598 123.79937988 21.65354492 123.82104492 22.56347656 C123.44188438 28.05999698 119.86493063 31.86564067 116.64404297 36.12939453 C117.23314453 37.00982422 117.82224609 37.89025391 118.42919922 38.79736328 C119.1890916 39.97003672 119.94816348 41.14324213 120.70654297 42.31689453 C121.09648437 42.89503906 121.48642578 43.47318359 121.88818359 44.06884766 C123.7231416 46.94307391 124.6896659 48.60367798 124.39013672 52.05517578 C124.14392578 52.73966797 123.89771484 53.42416016 123.64404297 54.12939453 C111.38525295 55.1873449 111.38525295 55.1873449 107.48388672 52.81689453 C104.23746931 49.09721423 102.33406476 44.7300094 100.64404297 40.12939453 C96.35404297 40.12939453 92.06404297 40.12939453 87.64404297 40.12939453 C87.45841797 42.75908203 87.45841797 42.75908203 87.26904297 45.44189453 C86.99681636 49.29843814 86.83398545 50.84448081 84.64404297 54.12939453 C82.80419922 54.67626953 82.80419922 54.67626953 80.70654297 54.87939453 C80.01689453 54.95673828 79.32724609 55.03408203 78.61669922 55.11376953 C76.64404297 55.12939453 76.64404297 55.12939453 73.64404297 54.12939453 C72.2870365 51.41538159 72.53165687 49.28093137 72.54638672 46.24658203 C72.5512207 44.49667969 72.5512207 44.49667969 72.55615234 42.71142578 C72.5687207 40.87644531 72.5687207 40.87644531 72.58154297 39.00439453 C72.58605469 37.77333984 72.59056641 36.54228516 72.59521484 35.27392578 C72.60702967 32.22570061 72.62350269 29.17757139 72.64404297 26.12939453 C75.74177466 24.32201295 77.92621509 23.89743822 81.49560547 23.96923828 C82.89746094 23.98567383 82.89746094 23.98567383 84.32763672 24.00244141 C85.29830078 24.02371094 86.26896484 24.04498047 87.26904297 24.06689453 C94.48190111 24.1993756 101.47841944 24.01506638 108.64404297 23.12939453 C108.68658653 21.12984707 108.6848508 19.12897817 108.64404297 17.12939453 C106.91827022 15.40362178 104.59631189 15.95989662 102.24145508 15.92407227 C101.08612778 15.90412704 99.93080048 15.88418182 98.74046326 15.8636322 C97.480168 15.84691971 96.21987274 15.83020721 94.92138672 15.81298828 C93.6322084 15.79220718 92.34303009 15.77142609 91.01478577 15.75001526 C87.57375607 15.69468461 84.13266425 15.64536817 80.69152832 15.59716797 C77.90337819 15.55716443 75.11530001 15.51308531 72.32721615 15.46873379 C64.43298654 15.34319737 56.53874148 15.22157126 48.64404297 15.12939453 C47.81067413 15.11699738 46.9773053 15.10460022 46.11868286 15.09182739 C41.13081855 15.04366109 37.71435437 15.28090221 33.89404297 18.69189453 C31.99333121 22.39828245 31.38507015 25.97144202 31.64404297 30.12939453 C33.83876447 34.42202072 33.83876447 34.42202072 37.64404297 37.12939453 C40.5277463 37.20134322 43.38643961 37.22231161 46.26904297 37.19189453 C47.07083984 37.18738281 47.87263672 37.18287109 48.69873047 37.17822266 C50.68053303 37.16642621 52.6622973 37.14849058 54.64404297 37.12939453 C54.64404297 35.47939453 54.64404297 33.82939453 54.64404297 32.12939453 C48.37404297 32.12939453 42.10404297 32.12939453 35.64404297 32.12939453 C36.57992757 26.51408692 37.32449662 24.45486402 40.64404297 20.12939453 C43.23128286 18.83577459 45.125173 18.99990504 48.01904297 18.99658203 C49.08638672 18.99529297 50.15373047 18.99400391 51.25341797 18.99267578 C52.37232422 18.99654297 53.49123047 19.00041016 54.64404297 19.00439453 C55.76294922 19.00052734 56.88185547 18.99666016 58.03466797 18.99267578 C59.63568359 18.99460938 59.63568359 18.99460938 61.26904297 18.99658203 C62.74244141 18.99827393 62.74244141 18.99827393 64.24560547 19 C66.64404297 19.12939453 66.64404297 19.12939453 68.64404297 20.12939453 C68.64404297 30.68939453 68.64404297 41.24939453 68.64404297 52.12939453 C64.41113378 54.24584912 58.88052106 53.35643451 54.22509766 53.36962891 C52.1794195 53.37922852 50.13479311 53.41019768 48.08935547 53.44189453 C30.53275037 53.51087923 30.53275037 53.51087923 23.76904297 47.62939453 C16.99015849 37.89376257 16.01856727 26.5077244 17.64404297 15.12939453 C4.44404297 15.12939453 -8.75595703 15.12939453 -22.35595703 15.12939453 C-22.02595703 16.44939453 -21.69595703 17.76939453 -21.35595703 19.12939453 C-17.52813155 19.942152 -13.84771419 20.20861257 -9.94970703 20.27001953 C-8.95841797 20.28935547 -7.96712891 20.30869141 -6.94580078 20.32861328 C-4.88610244 20.3624642 -2.82608813 20.38069651 -0.76611328 20.38330078 C7.6589101 20.59146131 7.6589101 20.59146131 11.27685547 23.50830078 C15.6890754 28.39377863 16.04723354 33.30323595 15.89404297 39.66064453 C15.5092625 43.46035168 14.60053635 45.82359537 12.64404297 49.12939453 C3.84747293 55.31238264 -7.49817959 54.32804389 -17.79345703 54.14379883 C-21.88386917 54.0783553 -25.76101552 54.12109712 -29.80908203 54.75048828 C-33.35595703 55.12939453 -33.35595703 55.12939453 -36.35595703 53.12939453 C-35.8926633 48.18759469 -33.59587958 43.83566957 -30.35595703 40.12939453 C-26.50475989 38.22797561 -23.22892027 37.83668259 -18.96142578 37.71533203 C-17.759375 37.67666016 -16.55732422 37.63798828 -15.31884766 37.59814453 C-14.07296875 37.56720703 -12.82708984 37.53626953 -11.54345703 37.50439453 C-10.27824219 37.46572266 -9.01302734 37.42705078 -7.70947266 37.38720703 C-4.59177852 37.29308796 -1.4740879 37.20745093 1.64404297 37.12939453 C1.64404297 35.47939453 1.64404297 33.82939453 1.64404297 32.12939453 C0.66177734 32.14510498 0.66177734 32.14510498 -0.34033203 32.16113281 C-3.34550035 32.20304812 -6.35060687 32.22883262 -9.35595703 32.25439453 C-10.38591797 32.27115234 -11.41587891 32.28791016 -12.47705078 32.30517578 C-26.50626565 32.39453384 -26.50626565 32.39453384 -31.79345703 28.19189453 C-35.81551102 22.88278327 -35.13009825 15.44326193 -34.35595703 9.12939453 C-32.44861048 5.46142039 -30.05117168 2.97700186 -26.35595703 1.12939453 C-17.64083611 -0.18887064 -8.78908707 -0.01332811 0 0 Z " fill="#8A6D2F" transform="translate(59.35595703125,209.87060546875)"/>
<path d="M0 0 C1.62612879 -0.00571634 3.25225359 -0.01268544 4.87837219 -0.02079773 C9.25649362 -0.03860249 13.63441326 -0.03758516 18.01255989 -0.03185534 C21.68283106 -0.02874571 25.35306445 -0.03487537 29.02333021 -0.04089409 C37.6879493 -0.05489538 46.35246969 -0.05341415 55.01708984 -0.04199219 C63.92460782 -0.03050877 72.83182477 -0.04460045 81.73930311 -0.07138866 C89.41870716 -0.09360985 97.09801715 -0.10016882 104.77745104 -0.09431225 C109.3502172 -0.09095758 113.92279038 -0.09325816 118.49552917 -0.11056328 C122.79676069 -0.1261338 127.09754901 -0.12196608 131.39876366 -0.10325813 C132.96716928 -0.09960036 134.5356085 -0.10259753 136.10398293 -0.11314392 C147.96742079 -0.18676248 160.20311058 0.68091463 169.68945312 8.64624023 C176.54947319 15.69420606 180.40979524 24.02297805 180.83789062 33.84155273 C180.63496156 40.13235362 179.17738577 46.24095131 174.93945312 51.06811523 C169.25911004 55.99876837 164.83533991 56.80671566 157.49804688 56.64624023 C147.92886663 55.89808238 142.15898816 51.63496764 135.82617188 44.67358398 C132.41078261 40.39700774 131.40039062 36.88245455 131.40039062 31.40405273 C132.59179688 29.69311523 132.59179688 29.69311523 134.40039062 28.40405273 C136.74023438 28.00561523 136.74023438 28.00561523 139.33789062 28.02905273 C140.19253906 28.02131836 141.0471875 28.01358398 141.92773438 28.00561523 C144.91578923 28.48710275 146.22331066 29.3210151 148.40039062 31.40405273 C149.543936 33.40922779 150.38755928 35.43579187 151.27539062 37.56420898 C152.69386437 39.88400459 153.87764203 40.45568613 156.40039062 41.40405273 C158.7253434 41.79154486 161.05890331 42.13388112 163.40039062 42.40405273 C163.83508495 33.79066509 163.53789349 26.50023704 158.15039062 19.46655273 C153.01522165 15.615176 147.50506639 15.15382535 141.23451233 15.1366272 C140.54813909 15.13209608 139.86176584 15.12756497 139.15459341 15.12289655 C136.87325592 15.11031808 134.59215916 15.11186861 132.31079102 15.11352539 C130.66758419 15.10753615 129.02438016 15.10072969 127.38117981 15.09317017 C122.93077075 15.07554605 118.48043865 15.07081638 114.02999806 15.06953859 C111.24705094 15.06811472 108.46412324 15.06384072 105.68118095 15.05854416 C95.96558265 15.04005775 86.25003914 15.03187205 76.53442383 15.03344727 C67.48834446 15.0346492 58.44250348 15.01353311 49.39648443 14.98195994 C41.61962581 14.9557869 33.84284502 14.94508036 26.0659427 14.94635808 C21.42560619 14.94686729 16.78548179 14.9412065 12.14518929 14.92000198 C7.7808734 14.90060151 3.41697163 14.90050737 -0.94735909 14.91503525 C-2.54528027 14.91712201 -4.14322751 14.91243033 -5.74110413 14.90031433 C-17.27654632 14.754721 -17.27654632 14.754721 -27.59960938 19.40405273 C-31.8533481 24.63942348 -32.74066036 28.55577012 -32.66210938 35.15405273 C-32.64857422 36.63131836 -32.64857422 36.63131836 -32.63476562 38.13842773 C-32.62316406 38.88608398 -32.6115625 39.63374023 -32.59960938 40.40405273 C-30.15183098 41.62794193 -28.86570396 41.42041673 -26.16210938 41.15405273 C-25.37964844 41.08702148 -24.5971875 41.01999023 -23.79101562 40.95092773 C-21.14852691 40.29148314 -20.27280078 39.52827835 -18.59960938 37.40405273 C-17.87201402 36.03914757 -17.16428201 34.66350669 -16.47460938 33.27905273 C-14.94495775 30.74206955 -14.18951961 29.6200762 -11.38085938 28.59155273 C-7.09372772 28.03478239 -5.30229751 27.93559398 -1.59960938 30.40405273 C-0.54809892 36.84455426 -2.93827783 41.31164236 -6.59960938 46.40405273 C-11.69857523 52.25362778 -18.56801127 55.74453546 -26.25195312 56.75170898 C-32.26476679 56.95967096 -36.56067788 56.09205111 -41.18945312 51.99780273 C-46.41127486 46.58447165 -48.15790746 40.37936993 -48.97460938 33.02905273 C-48.04596455 24.05215273 -46.3461219 15.79322879 -39.59960938 9.40405273 C-28.09012795 0.25067892 -14.05705093 -0.04514401 0 0 Z " fill="#886B29" transform="translate(71.599609375,46.595947265625)"/>
<path d="M0 0 C2.08897078 3.13345617 2.25052768 3.83301735 2.25396729 7.39598083 C2.25960693 8.29463867 2.26524658 9.19329651 2.27105713 10.1191864 C2.26700867 11.10264542 2.26296021 12.08610443 2.25878906 13.09936523 C2.2622937 14.13701019 2.26579834 15.17465515 2.26940918 16.2437439 C2.278229 19.68209476 2.27237594 23.12024071 2.265625 26.55859375 C2.26697168 28.94369039 2.26891223 31.32878675 2.27142334 33.71388245 C2.27437503 38.71658945 2.27007584 43.71922511 2.26074219 48.72192383 C2.24935387 55.13924312 2.25590301 61.55639502 2.26788712 67.97370815 C2.27510972 72.90042891 2.27281582 77.82710991 2.26763153 82.75383186 C2.26629583 85.12015871 2.26793998 87.48648916 2.27259064 89.85281181 C2.27766167 93.15905205 2.26993697 96.46502028 2.25878906 99.77124023 C2.26283752 100.75267502 2.26688599 101.7341098 2.27105713 102.74528503 C2.26259766 104.09750153 2.26259766 104.09750153 2.25396729 105.47703552 C2.25321323 106.25850669 2.25245918 107.03997786 2.25168228 107.84512997 C1.96268359 110.31949811 1.35722394 111.91431978 0 114 C-4.60535143 115.30599518 -9.36641553 115.15443238 -14.125 115.125 C-14.89183105 115.12306641 -15.65866211 115.12113281 -16.44873047 115.11914062 C-25.64514611 115.05251334 -34.82103995 114.53655716 -44 114 C-44.94240843 111.17277471 -45.12756862 109.44195471 -45.13371277 106.51463318 C-45.13797775 105.59625671 -45.14224274 104.67788025 -45.14663696 103.73167419 C-45.14618378 102.72637161 -45.14573059 101.72106903 -45.14526367 100.68530273 C-45.14862228 99.62493805 -45.1519809 98.56457336 -45.15544128 97.47207642 C-45.16495795 93.95923702 -45.16689457 90.44644524 -45.16796875 86.93359375 C-45.17118013 84.49886556 -45.17454411 82.06413757 -45.17805481 79.62940979 C-45.18404738 74.52417554 -45.18589451 69.41895822 -45.18530273 64.3137207 C-45.18520094 57.75721328 -45.19887003 51.20081374 -45.21607494 44.64433193 C-45.22716581 39.61647539 -45.22922287 34.5886452 -45.22869301 29.56077766 C-45.22987689 27.14255462 -45.23432129 24.72433098 -45.24202538 22.30611992 C-45.25176932 18.93243604 -45.24896975 15.55899004 -45.24291992 12.18530273 C-45.24853943 11.17797592 -45.25415894 10.17064911 -45.25994873 9.13279724 C-45.25575424 8.2172406 -45.25155975 7.30168396 -45.24723816 6.35838318 C-45.24778293 5.56031974 -45.24832769 4.7622563 -45.24888897 3.94000912 C-45 2 -45 2 -43 0 C-40.21484375 -0.23046875 -40.21484375 -0.23046875 -36.9375 -0.1875 C-35.31134766 -0.17783203 -35.31134766 -0.17783203 -33.65234375 -0.16796875 C-31 0 -31 0 -30 1 C-29.8773641 2.42850894 -29.82220011 3.86288755 -29.79467773 5.29638672 C-29.77473251 6.22009064 -29.75478729 7.14379456 -29.73423767 8.0954895 C-29.71752518 9.11327484 -29.70081268 10.13106018 -29.68359375 11.1796875 C-29.66281265 12.23944794 -29.64203156 13.29920837 -29.62062073 14.39108276 C-29.55419206 17.88564572 -29.49560091 21.38028939 -29.4375 24.875 C-29.39389651 27.27376332 -29.35027661 29.67252634 -29.30664062 32.07128906 C-29.00512994 49.48451581 -28.91713543 66.89275491 -29.03686523 84.30810547 C-29.04113022 85.16501984 -29.0453952 86.0219342 -29.04978943 86.90481567 C-29.05803952 88.49800464 -29.07045847 90.09117953 -29.08778381 91.68429565 C-29.09613084 93.45641904 -29.05372546 95.22867153 -29 97 C-27.91447634 98.31262571 -27.91447634 98.31262571 -25.27734375 98.09765625 C-24.17519531 98.08605469 -23.07304687 98.07445312 -21.9375 98.0625 C-20.28041016 98.04896484 -20.28041016 98.04896484 -18.58984375 98.03515625 C-17.73519531 98.02355469 -16.88054687 98.01195312 -16 98 C-15.82084544 91.93780976 -15.65631452 85.87532148 -15.5 79.8125 C-15.47565887 78.87914825 -15.45131775 77.94579651 -15.42623901 76.98416138 C-15.11760248 64.79243745 -14.96452817 52.60983725 -15.00390625 40.4140625 C-15.0074411 39.20608505 -15.01097595 37.9981076 -15.01461792 36.75352478 C-15.035514 30.78378428 -15.07182158 24.81450808 -15.125 18.8449707 C-15.13691894 16.6557628 -15.14864725 14.46655385 -15.16015625 12.27734375 C-15.18040611 10.75840012 -15.18040611 10.75840012 -15.20106506 9.20877075 C-15.20440353 8.2851474 -15.207742 7.36152405 -15.21118164 6.40991211 C-15.22236778 5.1988102 -15.22236778 5.1988102 -15.23377991 3.96324158 C-15 2 -15 2 -13 0 C-8.41947849 -0.96895647 -4.53568783 -1.26577335 0 0 Z " fill="#896B2C" transform="translate(159,79)"/>
<path d="M0 0 C6.08723655 -0.02467081 12.17444417 -0.04284604 18.26171875 -0.05493164 C20.33366401 -0.05996852 22.4056057 -0.06679825 24.47753906 -0.07543945 C27.45118082 -0.08753321 30.42477569 -0.09323467 33.3984375 -0.09765625 C34.32868744 -0.10281754 35.25893738 -0.10797882 36.21737671 -0.11329651 C37.07811798 -0.11337204 37.93885925 -0.11344757 38.82568359 -0.11352539 C39.58513275 -0.115746 40.34458191 -0.11796661 41.12704468 -0.12025452 C43 0 43 0 45 1 C45 2.98 45 4.96 45 7 C45.66 7 46.32 7 47 7 C48.4375 8.75 48.4375 8.75 50 11 C50.556875 11.7425 51.11375 12.485 51.6875 13.25 C52.120625 13.8275 52.55375 14.405 53 15 C51.84826645 17.46800047 50.95216435 19.04783565 49 21 C49.66 21.33 50.32 21.66 51 22 C51.0825 22.680625 51.165 23.36125 51.25 24.0625 C52.21278857 27.83342188 54.17690227 30.06330684 56.625 33.03515625 C58.06516172 35.09311462 58.75077791 36.50258697 59 39 C55.83806039 42.16193961 51.86128865 41.49795191 47.61450195 41.50195312 C44.79669571 41.41207746 42.48971431 41.25615826 39.96875 39.9375 C36.74737359 36.3232728 35.87509147 31.61411867 35 27 C30.71 27 26.42 27 22 27 C20.46573231 30.06853538 20.61060127 33.29587921 20.37890625 36.6875 C20 39 20 39 18 41 C15.43359375 41.23046875 15.43359375 41.23046875 12.4375 41.1875 C11.44621094 41.18105469 10.45492187 41.17460937 9.43359375 41.16796875 C7 41 7 41 6 40 C2.7474043 18.6774282 2.7474043 18.6774282 7 12 C13.44602592 9.78052814 21.56921009 10.99342956 28.32226562 11.12695312 C29.36189453 11.13791016 30.40152344 11.14886719 31.47265625 11.16015625 C32.41375244 11.17699463 33.35484863 11.19383301 34.32446289 11.21118164 C37.22596128 10.98216475 39.367733 10.20950059 42 9 C42 7.35 42 5.7 42 4 C38.72684491 2.36342246 35.09377769 2.7569193 31.4921875 2.68359375 C30.65156769 2.66281265 29.81094788 2.64203156 28.94485474 2.62062073 C26.25498765 2.55514561 23.56502157 2.4962498 20.875 2.4375 C19.05337511 2.39431284 17.23176029 2.35069848 15.41015625 2.30664062 C10.94020606 2.19946632 6.47015614 2.09819315 2 2 C2.02102783 2.67691895 2.04205566 3.35383789 2.0637207 4.05126953 C2.08007568 4.94442871 2.09643066 5.83758789 2.11328125 6.7578125 C2.13430908 7.64098145 2.15533691 8.52415039 2.17700195 9.43408203 C1.79784141 14.93060245 -1.77911234 18.73624614 -5 23 C-4.41089844 23.88042969 -3.82179687 24.76085937 -3.21484375 25.66796875 C-2.45495136 26.84064218 -1.69587949 28.0138476 -0.9375 29.1875 C-0.54755859 29.76564453 -0.15761719 30.34378906 0.24414062 30.93945312 C2.07909863 33.81367938 3.04562293 35.47428345 2.74609375 38.92578125 C2.49988281 39.61027344 2.25367188 40.29476562 2 41 C-10.25879001 42.05795037 -10.25879001 42.05795037 -14.16015625 39.6875 C-17.40657366 35.96781969 -19.30997821 31.60061487 -21 27 C-25.29 27 -29.58 27 -34 27 C-34.12375 28.753125 -34.2475 30.50625 -34.375 32.3125 C-34.64722661 36.16904361 -34.81005752 37.71508627 -37 41 C-38.83984375 41.546875 -38.83984375 41.546875 -40.9375 41.75 C-41.62714844 41.82734375 -42.31679687 41.9046875 -43.02734375 41.984375 C-45 42 -45 42 -48 41 C-49.3308911 38.33821779 -49.11268993 36.31260604 -49.09765625 33.3359375 C-49.09443359 32.21445313 -49.09121094 31.09296875 -49.08789062 29.9375 C-49.07951172 28.761875 -49.07113281 27.58625 -49.0625 26.375 C-49.05798828 25.19164062 -49.05347656 24.00828125 -49.04882812 22.7890625 C-49.03701467 19.85932493 -49.02054258 16.92968728 -49 14 C-47.83952148 13.98018066 -46.67904297 13.96036133 -45.48339844 13.93994141 C-41.17442266 13.86382088 -36.86578172 13.77511334 -32.55712891 13.68261719 C-30.69293838 13.6443541 -28.8286747 13.60949654 -26.96435547 13.578125 C-24.28326284 13.53241644 -21.60267267 13.47443178 -18.921875 13.4140625 C-18.08944275 13.40251129 -17.2570105 13.39096008 -16.39935303 13.37905884 C-10.92120392 13.27403199 -10.92120392 13.27403199 -6 11 C-5.505 13.475 -5.505 13.475 -5 16 C-5.66 16 -6.32 16 -7 16 C-7.33 16.66 -7.66 17.32 -8 18 C-8.66 17.67 -9.32 17.34 -10 17 C-8.35 17.33 -6.7 17.66 -5 18 C-2.31211302 14.08967675 -1.42764016 10.8720289 -0.8125 6.1875 C-0.65394531 5.02605469 -0.49539062 3.86460937 -0.33203125 2.66796875 C-0.22246094 1.78753906 -0.11289063 0.90710938 0 0 Z M-11 19 C-10.67 19.66 -10.34 20.32 -10 21 C-9.67 20.34 -9.34 19.68 -9 19 C-9.66 19 -10.32 19 -11 19 Z " fill="#886B2B" transform="translate(181,223)"/>
<path d="M0 0 C2.96875 -0.3984375 2.96875 -0.3984375 6.5 -0.375 C7.6653125 -0.38273437 8.830625 -0.39046875 10.03125 -0.3984375 C11.0109375 -0.26695313 11.990625 -0.13546875 13 0 C15.07179079 3.10768619 15.24907628 3.7541877 15.24050903 7.27104187 C15.24325836 8.14182373 15.24600769 9.01260559 15.24884033 9.90977478 C15.24164978 10.86211502 15.23445923 11.81445526 15.22705078 12.7956543 C15.22734283 13.80071014 15.22763489 14.80576599 15.22793579 15.84127808 C15.22654055 19.16901227 15.21097005 22.49652359 15.1953125 25.82421875 C15.19158307 28.12921527 15.18873577 30.43421337 15.18673706 32.73921204 C15.17909514 38.81047938 15.1594418 44.88165127 15.1373291 50.95288086 C15.11688273 57.14630848 15.10773793 63.3397515 15.09765625 69.53320312 C15.07619649 81.68884406 15.04205376 93.8444141 15 106 C16.08258087 106.26595474 17.16516174 106.53190948 18.2805481 106.80592346 C19.7236787 107.16291149 21.16678233 107.52000856 22.60986328 107.87719727 C23.32068558 108.05151527 24.03150787 108.22583328 24.76387024 108.40543365 C30.91791241 109.93251838 36.89867662 111.81808756 42.875 113.9375 C43.81601563 114.25912109 44.75703125 114.58074219 45.7265625 114.91210938 C62.97587576 120.95175152 62.97587576 120.95175152 65 125 C59.18375874 126.57143915 54.60299374 125.20108298 48.9375 123.75 C34.02467992 120.15185952 19.06522404 117.9144693 3.73828125 117.2109375 C1 117 1 117 -1 116 C-1.17724211 101.31856759 -1.34291544 86.63704288 -1.49477577 71.95532513 C-1.56555586 65.13851777 -1.64013678 58.32179139 -1.72363281 51.50512695 C-1.80415272 44.93056667 -1.87412391 38.3559494 -1.93757248 31.7811985 C-1.96355903 29.26886927 -1.99312113 26.75657447 -2.02626419 24.24432945 C-2.07197104 20.73411702 -2.1051308 17.22399886 -2.13525391 13.71362305 C-2.1517952 12.66777542 -2.16833649 11.6219278 -2.18537903 10.54438782 C-2.19104385 9.58946442 -2.19670868 8.63454102 -2.20254517 7.65068054 C-2.2117631 6.82014506 -2.22098103 5.98960958 -2.23047829 5.13390636 C-2 3 -2 3 0 0 Z " fill="#8C6F30" transform="translate(178,79)"/>
<path d="M0 0 C1.61534525 1.61534525 1.16552658 3.3947247 1.20532227 5.62963867 C1.2352401 7.11466133 1.2352401 7.11466133 1.26576233 8.62968445 C1.28247482 9.71481827 1.29918732 10.79995209 1.31640625 11.91796875 C1.33718735 13.04076736 1.35796844 14.16356598 1.37937927 15.32038879 C1.42278251 17.71721407 1.46380647 20.11408339 1.50268555 22.51098633 C1.56106397 26.09923382 1.62649423 29.68729239 1.69335938 33.27539062 C2.05627814 53.45353381 2.17040388 73.60975338 1.62768555 93.78515625 C1.5606434 96.32020316 1.50192089 98.8553694 1.44335938 101.390625 C1.40153406 103.01563775 1.35923624 104.64063842 1.31640625 106.265625 C1.29969376 107.01749084 1.28298126 107.76935669 1.26576233 108.54400635 C1.11459425 113.7708115 1.11459425 113.7708115 0 116 C-2.81502631 116.47762805 -5.56200948 116.82910976 -8.3984375 117.11328125 C-10.17710963 117.31161328 -11.9557545 117.51018986 -13.734375 117.70898438 C-16.52392389 118.00976589 -19.31383274 118.30613707 -22.10449219 118.59643555 C-33.02078282 119.74629799 -43.45395225 121.29117687 -53.99276733 124.44636536 C-57.76373069 125.55360809 -60.2419811 126.18569363 -64 125 C-63 122 -63 122 -60.95654297 120.85253906 C-60.06080566 120.49385742 -59.16506836 120.13517578 -58.2421875 119.765625 C-57.22125 119.35570312 -56.2003125 118.94578125 -55.1484375 118.5234375 C-54.06820312 118.10320312 -52.98796875 117.68296875 -51.875 117.25 C-50.87984375 116.84523438 -49.8846875 116.44046875 -48.859375 116.0234375 C-37.80212351 111.64943876 -26.39427077 108.36961071 -15 105 C-14.86686108 97.38255936 -14.73635567 89.765077 -14.60884857 82.14754009 C-14.54951055 78.60704589 -14.4893995 75.06656903 -14.42724609 71.52612305 C-14.35525511 67.41719488 -14.28574064 63.30823152 -14.21875 59.19921875 C-14.20767715 58.52066519 -14.19660431 57.84211163 -14.18519592 57.14299583 C-14.01311045 46.34321833 -13.95785447 35.54588825 -14.01843262 24.74467468 C-14.05143155 16.78835812 -13.74315911 8.92260698 -13 1 C-8.03917626 -1.26359265 -5.27552431 -0.96717946 0 0 Z " fill="#8A6A2C" transform="translate(96,79)"/>
<path d="M0 0 C1.21294235 0.00559433 2.4258847 0.01118866 3.67558289 0.01695251 C5.02684107 0.02834095 6.37809837 0.03983436 7.72935486 0.05142212 C9.14672605 0.05992584 10.56409989 0.06799762 11.98147583 0.07566833 C15.83671559 0.09789744 19.69188314 0.12656193 23.54706883 0.15662336 C27.57448017 0.18722974 31.60192353 0.21288652 35.62936401 0.23931885 C42.39254164 0.28453462 49.1556784 0.33401863 55.91880798 0.38589478 C63.74862168 0.44588962 71.57845951 0.49865581 79.4083491 0.54766309 C86.12090371 0.58986162 92.83342371 0.63591522 99.54592985 0.68522799 C103.55948014 0.71471139 107.57302785 0.74284461 111.58661079 0.76752853 C115.35814888 0.79094205 119.12962005 0.8191798 122.90109444 0.85121727 C124.28907527 0.86220782 125.67707079 0.87148888 127.06507492 0.87898064 C128.95202419 0.88943819 130.83893313 0.90655556 132.72583008 0.92407227 C133.78421617 0.93182364 134.84260225 0.939575 135.93306065 0.94756126 C138.29942322 1.08901978 138.29942322 1.08901978 139.29942322 2.08901978 C139.42397182 3.73132342 139.47510846 5.37954254 139.48692322 7.02651978 C139.50110291 7.92241821 139.51528259 8.81831665 139.52989197 9.74136353 C139.29942322 12.08901978 139.29942322 12.08901978 137.29942322 14.08901978 C134.81001282 14.34349537 134.81001282 14.34349537 131.60557556 14.34971619 C130.39407837 14.35680099 129.18258118 14.3638858 127.93437195 14.3711853 C126.58470117 14.36889129 125.23503074 14.36638157 123.88536072 14.36367798 C122.46960683 14.36802324 121.05385531 14.37320576 119.6381073 14.37916565 C115.78694822 14.39258606 111.93588709 14.39313103 108.08470917 14.39060235 C104.87374514 14.38953483 101.66280111 14.39441029 98.45184135 14.39920777 C90.8795358 14.41031318 83.30727985 14.41073437 75.73497009 14.4046936 C67.91302535 14.39864984 60.09126031 14.41097259 52.26934624 14.43226367 C45.56188748 14.44985251 38.85448606 14.4558854 32.14700508 14.45262593 C28.13727562 14.45080879 24.12767437 14.45349199 20.1179657 14.46734047 C16.34883511 14.47987042 12.5799857 14.47802105 8.81085968 14.46492958 C7.42489784 14.46255374 6.0389165 14.46533431 4.65297699 14.4735527 C2.76643373 14.4839359 0.87981109 14.47416425 -1.00672913 14.46324158 C-2.06419342 14.46340932 -3.12165771 14.46357706 -4.21116638 14.46374989 C-5.44342453 14.27825848 -5.44342453 14.27825848 -6.70057678 14.08901978 C-8.97062818 10.68394269 -8.88377853 9.87423556 -8.45057678 5.96401978 C-8.36292053 5.07456665 -8.27526428 4.18511353 -8.18495178 3.26870728 C-8.02510803 2.5494104 -7.86526428 1.83011353 -7.70057678 1.08901978 C-5.02203541 -0.25025091 -3.00019818 -0.01982818 0 0 Z " fill="#896B29" transform="translate(71.70057678222656,21.910980224609375)"/>
<path d="M0 0 C0.67790744 -0.00367669 1.35581488 -0.00735338 2.05426496 -0.01114148 C4.31315696 -0.0221051 6.57200283 -0.02600964 8.83091736 -0.02983093 C10.45601037 -0.03610121 12.08110196 -0.0427485 13.70619202 -0.04974365 C19.03283197 -0.07072252 24.35947199 -0.08114151 29.68614197 -0.09111023 C31.52524264 -0.09516035 33.36434316 -0.09927734 35.20344353 -0.10346031 C43.84733651 -0.12249985 52.49122103 -0.13673246 61.13513094 -0.14507228 C71.08734046 -0.15483488 81.03932699 -0.18113408 90.991458 -0.22157317 C98.7004251 -0.25181407 106.40932856 -0.26654876 114.11835378 -0.26985329 C118.71472586 -0.272195 123.3108594 -0.28104005 127.90716743 -0.30631447 C132.23699533 -0.32973977 136.56643004 -0.33377091 140.89630508 -0.32355309 C142.47600685 -0.32306108 144.05572894 -0.3292813 145.63537025 -0.34310913 C157.53650724 -0.44136965 169.79408775 0.39496555 179.31504822 8.38935852 C186.17506828 15.43732434 190.03539034 23.76609634 190.46348572 33.58467102 C190.26055666 39.8754719 188.80298086 45.9840696 184.56504822 50.81123352 C178.88470513 55.74188666 174.460935 56.54983395 167.12364197 56.38935852 C157.55446173 55.64120067 151.78458325 51.37808593 145.45176697 44.41670227 C142.0363777 40.14012602 141.02598572 36.62557284 141.02598572 31.14717102 C142.21739197 29.43623352 142.21739197 29.43623352 144.02598572 28.14717102 C146.36582947 27.74873352 146.36582947 27.74873352 148.96348572 27.77217102 C149.81813416 27.76443665 150.67278259 27.75670227 151.55332947 27.74873352 C154.54138433 28.23022103 155.84890575 29.06413338 158.02598572 31.14717102 C159.1695311 33.15234608 160.01315437 35.17891015 160.90098572 37.30732727 C162.31945947 39.62712288 163.50323713 40.19880442 166.02598572 41.14717102 C168.35093849 41.53466315 170.6844984 41.87699941 173.02598572 42.14717102 C173.35598572 38.84717102 173.68598572 35.54717102 174.02598572 32.14717102 C174.35598572 32.14717102 174.68598572 32.14717102 175.02598572 32.14717102 C175.43300299 25.11668044 175.43300299 25.11668044 172.02598572 19.14717102 C169.76382808 17.32739088 167.45494291 15.75119936 165.02598572 14.14717102 C165.68598572 13.81717102 166.34598572 13.48717102 167.02598572 13.14717102 C167.35598572 11.82717102 167.68598572 10.50717102 168.02598572 9.14717102 C165.38598572 8.48717102 162.74598572 7.82717102 160.02598572 7.14717102 C161.34598572 6.15717102 162.66598572 5.16717102 164.02598572 4.14717102 C160.17198038 0.29316568 146.9968978 2.03433797 141.50254822 2.01435852 C138.8816057 2.11473082 138.8816057 2.11473082 135.74067688 2.64639282 C129.55305407 3.42677362 123.34116307 3.29461225 117.11436462 3.29243469 C115.71743175 3.29543107 114.3204997 3.29883469 112.92356873 3.3026123 C109.15129674 3.31140041 105.37904746 3.31378801 101.60676622 3.31442809 C99.24950838 3.31514069 96.89225626 3.31727881 94.53499985 3.31992531 C86.31112554 3.32915623 78.08726738 3.33326236 69.86338806 3.33247375 C62.19472908 3.33187114 54.52614003 3.34246454 46.85749876 3.35821742 C40.26882236 3.37127032 33.68016891 3.37665872 27.09147966 3.37601835 C23.15787627 3.37576302 19.2243353 3.37863439 15.29074478 3.3891964 C11.59874337 3.3988414 7.90686462 3.39898155 4.21485901 3.39167976 C2.20905467 3.39012794 0.20325042 3.39850268 -1.80253601 3.40711975 C-2.98853394 3.40292526 -4.17453186 3.39873077 -5.39646912 3.39440918 C-6.94885316 3.39522633 -6.94885316 3.39522633 -8.5325985 3.39605999 C-10.97401428 3.14717102 -10.97401428 3.14717102 -12.97401428 1.14717102 C-8.59703496 0.3093686 -4.45378274 0.01574159 0 0 Z " fill="#896B2D" transform="translate(61.97401428222656,46.85282897949219)"/>
<path d="M0 0 C0.66 0.33 1.32 0.66 2 1 C1.34 1.66 0.68 2.32 0 3 C0.33 3.66 0.66 4.32 1 5 C2.32 4.34 3.64 3.68 5 3 C4.6875 4.9375 4.6875 4.9375 4 7 C3.01 7.33 2.02 7.66 1 8 C1 8.66 1 9.32 1 10 C1.99 10.66 2.98 11.32 4 12 C3.21625 12.515625 2.4325 13.03125 1.625 13.5625 C-1.63377444 16.58850484 -2.17884142 18.67025474 -3 23 C-3.16847091 26.29219428 -3.16847091 26.29219428 -3 29 C-2.67 29 -2.34 29 -2 29 C-1.87625 30.134375 -1.7525 31.26875 -1.625 32.4375 C-1.41875 33.613125 -1.2125 34.78875 -1 36 C1.44777839 37.2238892 2.73390541 37.016364 5.4375 36.75 C6.21996094 36.68296875 7.00242187 36.6159375 7.80859375 36.546875 C10.45108246 35.8874304 11.32680859 35.12422561 13 33 C13.72759536 31.63509484 14.43532736 30.25945396 15.125 28.875 C16.65465162 26.33801682 17.41008976 25.21602347 20.21875 24.1875 C24.50588165 23.63072966 26.29731186 23.53154124 30 26 C31.05151045 32.44050152 28.66133154 36.90758963 25 42 C19.90103414 47.84957504 13.0315981 51.34048272 5.34765625 52.34765625 C-0.66515741 52.55561823 -4.96106851 51.68799837 -9.58984375 47.59375 C-14.81166548 42.18041891 -16.55829809 35.97531719 -17.375 28.625 C-16.4429536 19.61521817 -14.69427589 11.47063638 -8 5 C-5.47783227 3.03674839 -2.96521999 1.22215148 0 0 Z " fill="#8A6C2D" transform="translate(40,51)"/>
<path d="M0 0 C1.21294235 0.00559433 2.4258847 0.01118866 3.67558289 0.01695251 C5.02684107 0.02834095 6.37809837 0.03983436 7.72935486 0.05142212 C9.14672605 0.05992584 10.56409989 0.06799762 11.98147583 0.07566833 C15.83671559 0.09789744 19.69188314 0.12656193 23.54706883 0.15662336 C27.57448017 0.18722974 31.60192353 0.21288652 35.62936401 0.23931885 C42.39254164 0.28453462 49.1556784 0.33401863 55.91880798 0.38589478 C63.74862168 0.44588962 71.57845951 0.49865581 79.4083491 0.54766309 C86.12090371 0.58986162 92.83342371 0.63591522 99.54592985 0.68522799 C103.55948014 0.71471139 107.57302785 0.74284461 111.58661079 0.76752853 C115.35814888 0.79094205 119.12962005 0.8191798 122.90109444 0.85121727 C124.28907527 0.86220782 125.67707079 0.87148888 127.06507492 0.87898064 C128.95202419 0.88943819 130.83893313 0.90655556 132.72583008 0.92407227 C133.78421617 0.93182364 134.84260225 0.939575 135.93306065 0.94756126 C138.29942322 1.08901978 138.29942322 1.08901978 139.29942322 2.08901978 C139.42397182 3.73132342 139.47510846 5.37954254 139.48692322 7.02651978 C139.50110291 7.92241821 139.51528259 8.81831665 139.52989197 9.74136353 C139.29942322 12.08901978 139.29942322 12.08901978 137.29942322 14.08901978 C134.81001282 14.34349537 134.81001282 14.34349537 131.60557556 14.34971619 C130.39407837 14.35680099 129.18258118 14.3638858 127.93437195 14.3711853 C126.58470117 14.36889129 125.23503074 14.36638157 123.88536072 14.36367798 C122.46960683 14.36802324 121.05385531 14.37320576 119.6381073 14.37916565 C115.78694822 14.39258606 111.93588709 14.39313103 108.08470917 14.39060235 C104.87374514 14.38953483 101.66280111 14.39441029 98.45184135 14.39920777 C90.8795358 14.41031318 83.30727985 14.41073437 75.73497009 14.4046936 C67.91302535 14.39864984 60.09126031 14.41097259 52.26934624 14.43226367 C45.56188748 14.44985251 38.85448606 14.4558854 32.14700508 14.45262593 C28.13727562 14.45080879 24.12767437 14.45349199 20.1179657 14.46734047 C16.34883511 14.47987042 12.5799857 14.47802105 8.81085968 14.46492958 C7.42489784 14.46255374 6.0389165 14.46533431 4.65297699 14.4735527 C2.76643373 14.4839359 0.87981109 14.47416425 -1.00672913 14.46324158 C-2.06419342 14.46340932 -3.12165771 14.46357706 -4.21116638 14.46374989 C-5.44342453 14.27825848 -5.44342453 14.27825848 -6.70057678 14.08901978 C-8.97062818 10.68394269 -8.88377853 9.87423556 -8.45057678 5.96401978 C-8.36292053 5.07456665 -8.27526428 4.18511353 -8.18495178 3.26870728 C-8.02510803 2.5494104 -7.86526428 1.83011353 -7.70057678 1.08901978 C-5.02203541 -0.25025091 -3.00019818 -0.01982818 0 0 Z M-6.70057678 5.08901978 C-6.70057678 7.39901978 -6.70057678 9.70901978 -6.70057678 12.08901978 C40.81942322 12.08901978 88.33942322 12.08901978 137.29942322 12.08901978 C137.29942322 9.44901978 137.29942322 6.80901978 137.29942322 4.08901978 C135.56966737 2.35926392 133.24160582 2.95915123 130.88441467 2.95530701 C129.12188354 2.94890953 129.12188354 2.94890953 127.32374573 2.94238281 C125.37255325 2.94306259 125.37255325 2.94306259 123.38194275 2.9437561 C122.00736906 2.94076613 120.63279622 2.93736398 119.25822449 2.93357849 C115.51439555 2.92471694 111.77058945 2.92239945 108.02675104 2.9217627 C104.90540889 2.92081522 101.7840721 2.91713871 98.66273201 2.91359061 C91.29992711 2.90543757 83.93713445 2.90300712 76.57432556 2.90371704 C68.9711564 2.9043178 61.3680582 2.89376835 53.764907 2.87797338 C47.24514529 2.8649101 40.7254068 2.85953265 34.20563209 2.86017245 C30.30822184 2.86042783 26.41087458 2.85755473 22.51347733 2.8469944 C18.84783014 2.83733397 15.18230643 2.83722002 11.51665497 2.84451103 C9.52648321 2.84606031 7.53631152 2.83769546 5.54615784 2.82907104 C4.36549744 2.83326553 3.18483704 2.83746002 1.96839905 2.84178162 C0.42588313 2.84096447 0.42588313 2.84096447 -1.14779472 2.84013081 C-3.94298035 2.91020795 -3.94298035 2.91020795 -6.70057678 5.08901978 Z " fill="#5E4514" transform="translate(71.70057678222656,21.910980224609375)"/>
<path d="M0 0 C0.68945351 -0.00226556 1.37890702 -0.00453111 2.08925307 -0.00686532 C4.39290341 -0.01318098 6.69649456 -0.01237753 9.00015259 -0.0115509 C10.6545367 -0.0145439 12.30892011 -0.01794676 13.96330261 -0.02172852 C18.45300651 -0.03055812 22.94269135 -0.03290619 27.43240309 -0.0335443 C30.23844189 -0.03425536 33.04447586 -0.03639075 35.85051346 -0.03904152 C45.64274656 -0.04829131 55.43496605 -0.05237684 65.22720337 -0.05158997 C74.35043909 -0.05098918 83.47361569 -0.06154213 92.59683645 -0.07733363 C100.4339273 -0.09041486 108.27099885 -0.09577362 116.10810053 -0.09513456 C120.78693574 -0.09487975 125.46571838 -0.09772133 130.14454269 -0.10831261 C134.54566379 -0.11800343 138.94668218 -0.118066 143.34780693 -0.11079597 C144.96065483 -0.10975138 146.57350916 -0.1121056 148.18634605 -0.11815643 C150.39298685 -0.12589713 152.59927477 -0.12121805 154.8059082 -0.11352539 C156.03922567 -0.11407016 157.27254314 -0.11461493 158.54323387 -0.1151762 C165.98934901 0.41634468 171.07278444 2.99528084 176.84243774 7.57121277 C179.92948112 11.63311195 179.11199313 17.29244485 179.02993774 22.13371277 C176.40823726 19.85964108 175.53049131 18.09036465 174.65493774 14.75871277 C173.285244 10.41664239 171.75708548 7.92907357 168.02993774 5.13371277 C163.19451761 3.46562851 158.96360883 2.88027369 153.86405945 2.86628723 C153.1776862 2.86175612 152.49131296 2.85722501 151.78414053 2.85255659 C149.50280304 2.83997811 147.22170628 2.84152864 144.94033813 2.84318542 C143.29713131 2.83719618 141.65392728 2.83038972 140.01072693 2.8228302 C135.56031787 2.80520609 131.10998577 2.80047642 126.65954518 2.79919863 C123.87659806 2.79777476 121.09367036 2.79350076 118.31072807 2.78820419 C108.59512977 2.76971779 98.87958626 2.76153209 89.16397095 2.7631073 C80.11789158 2.76430923 71.07205059 2.74319314 62.02603155 2.71161997 C54.24917293 2.68544693 46.47239214 2.67474039 38.69548982 2.67601812 C34.05515331 2.67652733 29.41502891 2.67086653 24.7747364 2.64966202 C20.41042052 2.63026155 16.04651875 2.6301674 11.68218803 2.64469528 C10.08426685 2.64678204 8.48631961 2.64209037 6.88844299 2.62997437 C-4.64187679 2.49386252 -4.64187679 2.49386252 -14.97006226 7.13371277 C-18.78821785 11.57102873 -20.34799979 16.60395436 -21.97006226 22.13371277 C-22.30006226 22.13371277 -22.63006226 22.13371277 -22.97006226 22.13371277 C-23.17742048 17.05343622 -22.85277207 12.88531373 -20.97006226 8.13371277 C-18.59506226 5.88371277 -18.59506226 5.88371277 -15.97006226 4.13371277 C-14.98006226 3.29840027 -14.98006226 3.29840027 -13.97006226 2.44621277 C-9.75299773 -0.32123583 -4.89862971 0.00666038 0 0 Z " fill="#524019" transform="translate(58.970062255859375,58.86628723144531)"/>
<path d="M0 0 C1.28197266 -0.01160156 1.28197266 -0.01160156 2.58984375 -0.0234375 C5.57789861 0.45805001 6.88542003 1.29196236 9.0625 3.375 C10.20604538 5.38017506 11.04966865 7.40673913 11.9375 9.53515625 C13.35597375 11.85495186 14.53975141 12.4266334 17.0625 13.375 C19.38745277 13.76249213 21.72101268 14.10482839 24.0625 14.375 C24.3925 13.055 24.7225 11.735 25.0625 10.375 C25.7225 10.375 26.3825 10.375 27.0625 10.375 C27.3925 9.715 27.7225 9.055 28.0625 8.375 C27.7840625 10.045625 27.7840625 10.045625 27.5 11.75 C26.74569343 15.20068861 26.74569343 15.20068861 28.0625 17.375 C27.258125 17.66375 26.45375 17.9525 25.625 18.25 C22.9298532 19.10762568 22.9298532 19.10762568 22.0625 21.375 C23.3825 22.035 24.7025 22.695 26.0625 23.375 C22.1025 23.87 22.1025 23.87 18.0625 24.375 C18.0625 25.035 18.0625 25.695 18.0625 26.375 C11.89439657 26.15857532 8.87966686 24.99684578 4.3125 20.84765625 C3.0625 19.375 3.0625 19.375 3.0625 17.375 C2.4025 17.375 1.7425 17.375 1.0625 17.375 C1.0625 16.385 1.0625 15.395 1.0625 14.375 C0.4025 14.375 -0.2575 14.375 -0.9375 14.375 C-2.9175 10.91 -2.9175 10.91 -4.9375 7.375 C-5.5975 8.365 -6.2575 9.355 -6.9375 10.375 C-7.625 7.0625 -7.625 7.0625 -7.9375 3.375 C-5.74345771 0.17901173 -3.74406085 -0.033781 0 0 Z " fill="#8B6F31" transform="translate(210.9375,74.625)"/>
<path d="M0 0 C2.4294516 3.6441774 2.16179575 5.71241272 2 10 C1.67 10 1.34 10 1 10 C0.34 7.69 -0.32 5.38 -1 3 C-4.3 2.67 -7.6 2.34 -11 2 C-11 34.67 -11 67.34 -11 101 C-17.6 101 -24.2 101 -31 101 C-31 100.67 -31 100.34 -31 100 C-23.575 99.01 -23.575 99.01 -16 98 C-15.82418849 91.93764235 -15.65631568 85.87536643 -15.5 79.8125 C-15.47565887 78.87914825 -15.45131775 77.94579651 -15.42623901 76.98416138 C-15.11760248 64.79243745 -14.96452817 52.60983725 -15.00390625 40.4140625 C-15.0074411 39.20608505 -15.01097595 37.9981076 -15.01461792 36.75352478 C-15.035514 30.78378428 -15.07182158 24.81450808 -15.125 18.8449707 C-15.13691894 16.6557628 -15.14864725 14.46655385 -15.16015625 12.27734375 C-15.18040611 10.75840012 -15.18040611 10.75840012 -15.20106506 9.20877075 C-15.20440353 8.2851474 -15.207742 7.36152405 -15.21118164 6.40991211 C-15.22236778 5.1988102 -15.22236778 5.1988102 -15.23377991 3.96324158 C-15 2 -15 2 -13 0 C-8.41947849 -0.96895647 -4.53568783 -1.26577335 0 0 Z " fill="#856F41" transform="translate(159,79)"/>
<path d="M0 0 C0.66 0 1.32 0 2 0 C2 36.96 2 73.92 2 112 C10.91 112.66 19.82 113.32 29 114 C35.91778448 115.11240755 42.75281428 116.22844761 49.61816406 117.55810547 C51.74981048 117.95358313 53.87697712 118.29486576 56.0234375 118.59765625 C57.65152344 118.82775391 57.65152344 118.82775391 59.3125 119.0625 C60.19550781 119.17722656 61.07851562 119.29195313 61.98828125 119.41015625 C64 120 64 120 66 123 C60.18375874 124.57143915 55.60299374 123.20108298 49.9375 121.75 C35.02467992 118.15185952 20.06522404 115.9144693 4.73828125 115.2109375 C2 115 2 115 0 114 C-0.15376677 99.28395852 -0.30180359 84.56786881 -0.4429636 69.85170078 C-0.5086368 63.01918593 -0.57620594 56.18669953 -0.64819336 49.35424805 C-0.71759532 42.76668738 -0.78177345 36.17908948 -0.84269524 29.59144402 C-0.86686326 27.07190144 -0.89281359 24.55237534 -0.92053413 22.03286934 C-0.95891431 18.51746323 -0.9910879 15.00205311 -1.02172852 11.48657227 C-1.03467453 10.43353409 -1.04762054 9.38049591 -1.06095886 8.29554749 C-1.06799835 7.34337341 -1.07503784 6.39119934 -1.08229065 5.41017151 C-1.09473485 4.16160291 -1.09473485 4.16160291 -1.10743046 2.88781071 C-1 1 -1 1 0 0 Z " fill="#6A562D" transform="translate(177,81)"/>
<path d="M0 0 C1.19574646 -0.00175232 2.39149292 -0.00350464 3.62347412 -0.00531006 C6.88975879 -0.00894847 10.15600271 -0.00810814 13.42228675 -0.00493097 C16.84417285 -0.00239291 20.2660563 -0.00474878 23.6879425 -0.00631714 C29.43015021 -0.00813387 35.17234503 -0.00574477 40.91455078 -0.00097656 C47.55384592 0.00447288 54.19311039 0.00269646 60.83240479 -0.00280297 C66.5369867 -0.00733896 72.24155937 -0.00798249 77.94614249 -0.0053643 C81.35161423 -0.00380521 84.75707153 -0.00359787 88.16254234 -0.00690079 C91.95473707 -0.00943096 95.74687223 -0.00558185 99.5390625 0 C100.66899124 -0.00202423 101.79891998 -0.00404846 102.96308899 -0.00613403 C103.99348297 -0.00331421 105.02387695 -0.00049438 106.085495 0.00241089 C106.981981 0.00278791 107.87846701 0.00316494 108.80211926 0.00355339 C111.07543945 0.12939453 111.07543945 0.12939453 114.07543945 1.12939453 C116.13437566 1.35265267 118.19777598 1.53645212 120.26293945 1.69189453 C121.34961914 1.77568359 122.43629883 1.85947266 123.5559082 1.94580078 C124.80307617 2.03667969 124.80307617 2.03667969 126.07543945 2.12939453 C126.07543945 2.45939453 126.07543945 2.78939453 126.07543945 3.12939453 C107.59549155 3.17606577 89.11555556 3.2113594 70.63556099 3.23301888 C62.05544187 3.24334197 53.47535932 3.25742198 44.89526367 3.28027344 C37.4189409 3.30017575 29.9426446 3.31310344 22.46629608 3.31757152 C18.50573759 3.32018428 14.54525487 3.32634668 10.58472061 3.34085464 C6.86000534 3.35438874 3.13539732 3.35862569 -0.58934021 3.35560989 C-1.95917976 3.35616194 -3.32902275 3.3601642 -4.69884109 3.36780548 C-6.5635954 3.37770092 -8.42840673 3.37418467 -10.29318237 3.36990356 C-11.86115224 3.37266894 -11.86115224 3.37266894 -13.46079826 3.37549019 C-15.92456055 3.12939453 -15.92456055 3.12939453 -17.92456055 1.12939453 C-11.97277949 -0.16910997 -6.05819621 -0.01091171 0 0 Z " fill="#8C6636" transform="translate(66.924560546875,46.87060546875)"/>
<path d="M0 0 C0.99 0.33 1.98 0.66 3 1 C3 4.3 3 7.6 3 11 C3.66 11 4.32 11 5 11 C4.67 11.99 4.34 12.98 4 14 C2.66666667 14 1.33333333 14 0 14 C0.495 16.475 0.495 16.475 1 19 C-3.29 19.66 -7.58 20.32 -12 21 C-12 21.66 -12 22.32 -12 23 C-13.28132813 23.17015625 -14.56265625 23.3403125 -15.8828125 23.515625 C-25.29113419 24.81747416 -34.21374784 26.33052212 -43.25 29.328125 C-46.02081252 30.00508488 -47.36698403 29.98738099 -50 29 C-49 26 -49 26 -46.95654297 24.85253906 C-46.06080566 24.49385742 -45.16506836 24.13517578 -44.2421875 23.765625 C-43.23406006 23.35940918 -42.22593262 22.95319336 -41.18725586 22.53466797 C-40.09421143 22.11072754 -39.00116699 21.68678711 -37.875 21.25 C-36.76455322 20.81187988 -35.65410645 20.37375977 -34.51000977 19.92236328 C-23.52023685 15.6670038 -12.3301856 12.21892385 -1 9 C-0.67 6.03 -0.34 3.06 0 0 Z " fill="#876B2F" transform="translate(82,175)"/>
<path d="M0 0 C0.99 0.66 1.98 1.32 3 2 C4.05151045 8.44050152 1.66133154 12.90758963 -2 18 C-7.09896586 23.84957504 -13.9684019 27.34048272 -21.65234375 28.34765625 C-28.146059 28.57225091 -32.50543046 27.29762984 -37.375 22.8125 C-37.91125 22.214375 -38.4475 21.61625 -39 21 C-38.67 20.34 -38.34 19.68 -38 19 C-35.96166576 20.2739589 -33.96147874 21.61061923 -32 23 C-32 23.66 -32 24.32 -32 25 C-25.04746138 26.04350941 -20.2370931 26.46505172 -14 23 C-14.474375 22.566875 -14.94875 22.13375 -15.4375 21.6875 C-17 20 -17 20 -18 17 C-18.66 16.67 -19.32 16.34 -20 16 C-19.278125 15.360625 -18.55625 14.72125 -17.8125 14.0625 C-14.81797987 11.11873445 -13.13015467 7.73855373 -11.30859375 3.98828125 C-8.52259681 -0.24477081 -4.77653643 -0.40651374 0 0 Z " fill="#876A26" transform="translate(67,75)"/>
<path d="M0 0 C1.65 0 3.3 0 5 0 C6.14242277 2.28484553 6.12340344 3.53682888 6.12025452 6.07485962 C6.12162918 6.92743851 6.12300385 7.7800174 6.12442017 8.65843201 C6.12082489 9.59566605 6.11722961 10.53290009 6.11352539 11.49853516 C6.11367142 12.48393784 6.11381744 13.46934052 6.1139679 14.48460388 C6.11326933 17.75277889 6.10547955 21.02089741 6.09765625 24.2890625 C6.09579187 26.55064869 6.09436806 28.81223528 6.09336853 31.07382202 C6.08954493 37.03492339 6.07971596 42.99600051 6.06866455 48.95709229 C6.05844707 55.03649569 6.05387019 61.11590299 6.04882812 67.1953125 C6.03809357 79.13021901 6.02101902 91.06510749 6 103 C3.33336447 100.44963707 2.77457912 98.40730569 2.65942383 94.84994507 C2.65986954 93.12433708 2.67696816 91.39868599 2.70703125 89.67333984 C2.71360245 88.25813805 2.71360245 88.25813805 2.7203064 86.81434631 C2.73171638 84.76758487 2.7500579 82.72085301 2.77450562 80.67420578 C2.81276175 77.43880035 2.83233243 74.20376324 2.84692383 70.96817017 C2.88122151 64.1036148 2.93897493 57.23936297 3 50.375 C3.07068443 42.41524071 3.13187765 34.4556536 3.16781616 26.49565506 C3.18733002 23.3012623 3.22484815 20.1073951 3.26293945 16.91317749 C3.27383202 14.96474676 3.28388784 13.01631111 3.29296875 11.06787109 C3.30846771 10.17432419 3.32396667 9.28077728 3.3399353 8.3601532 C3.37650867 5.65338097 3.37650867 5.65338097 3 2 C2.01 1.34 1.02 0.68 0 0 Z " fill="#79633D" transform="translate(187,80)"/>
<path d="M0 0 C0.33 0 0.66 0 1 0 C2.26373092 4.87749937 2.14775184 9.68311653 2.14526367 14.68383789 C2.14862228 15.65349991 2.1519809 16.62316193 2.15544128 17.62220764 C2.16492831 20.82237026 2.16689302 24.02248046 2.16796875 27.22265625 C2.17118199 29.44795249 2.17454611 31.67324852 2.17805481 33.89854431 C2.1840398 38.55972789 2.18589526 43.22089293 2.18530273 47.88208008 C2.18520094 53.85989968 2.19887374 59.83760097 2.21607494 65.81539249 C2.2271805 70.40926156 2.22922242 75.00310184 2.22869301 79.59698296 C2.22987451 81.80143073 2.2343058 84.00587922 2.24202538 86.2103138 C2.25179959 89.2888132 2.24895774 92.36705325 2.24291992 95.44555664 C2.24853943 96.35839417 2.25415894 97.27123169 2.25994873 98.21173096 C2.25575424 99.05141922 2.25155975 99.89110748 2.24723816 100.75624084 C2.24778293 101.48349397 2.24832769 102.21074709 2.24888897 102.96003819 C1.95440137 105.37373881 1.31583908 106.95865819 0 109 C-4.60535143 110.30599518 -9.36641553 110.15443238 -14.125 110.125 C-14.89183105 110.12306641 -15.65866211 110.12113281 -16.44873047 110.11914062 C-25.64514611 110.05251334 -34.82103995 109.53655716 -44 109 C-44 108.67 -44 108.34 -44 108 C-29.81 108 -15.62 108 -1 108 C-0.67 72.36 -0.34 36.72 0 0 Z " fill="#6C5A35" transform="translate(159,84)"/>
<path d="M0 0 C1.85019997 0.00068733 1.85019997 0.00068733 3.73777771 0.00138855 C6.33390267 0.00439712 8.93002604 0.01224132 11.52612305 0.0246582 C15.48688188 0.04292626 19.44740651 0.04516751 23.40820312 0.04492188 C25.93880409 0.04983757 28.46940349 0.05566611 31 0.0625 C32.17728165 0.06361282 33.35456329 0.06472565 34.56752014 0.06587219 C40.44871013 0.0996285 46.11813537 0.33855457 51.93359375 1.23046875 C52.92359375 3.70546875 52.92359375 3.70546875 53.93359375 6.23046875 C52.94359375 5.57046875 51.95359375 4.91046875 50.93359375 4.23046875 C48.30294849 3.90173483 48.30294849 3.90173483 45.30395508 3.91162109 C43.57119072 3.88181656 43.57119072 3.88181656 41.80342102 3.85140991 C40.55344833 3.8398587 39.30347565 3.8283075 38.015625 3.81640625 C36.72927658 3.7970401 35.44292816 3.77767395 34.11759949 3.75772095 C30.69305614 3.70635037 27.26847253 3.66678553 23.84375 3.62957764 C20.38335937 3.5898065 16.92314349 3.53843117 13.46289062 3.48828125 C6.28659106 3.38696593 -0.88970719 3.29807827 -8.06640625 3.23046875 C-8.89830475 3.21880676 -9.73020325 3.20714478 -10.58731079 3.19512939 C-14.58041785 3.15651364 -17.54070726 3.21578361 -21.06640625 5.23046875 C-24.21397198 8.37803448 -25.00486832 11.98431704 -26.06640625 16.23046875 C-26.39640625 16.23046875 -26.72640625 16.23046875 -27.06640625 16.23046875 C-27.48451569 11.38039919 -27.58745998 9.13811074 -25.12890625 4.85546875 C-19.02650801 -1.42613795 -8.01373834 -0.04899595 0 0 Z " fill="#654A20" transform="translate(116.06640625,221.76953125)"/>
<path d="M0 0 C0.33 0 0.66 0 1 0 C1.14562699 6.29062116 1.28785175 12.58130795 1.42724609 18.87207031 C1.4748682 21.00132196 1.52333764 23.13055486 1.57275391 25.25976562 C2.04791269 45.77886738 2.17963813 66.26647284 1.62768555 86.78515625 C1.5606434 89.32020316 1.50192089 91.8553694 1.44335938 94.390625 C1.40153406 96.01563775 1.35923624 97.64063842 1.31640625 99.265625 C1.29133751 100.39342377 1.29133751 100.39342377 1.26576233 101.54400635 C1.11459425 106.7708115 1.11459425 106.7708115 0 109 C-2.50024414 109.50244141 -2.50024414 109.50244141 -5.78515625 109.8515625 C-7.53989258 110.04492188 -7.53989258 110.04492188 -9.33007812 110.2421875 C-10.56177734 110.36851562 -11.79347656 110.49484375 -13.0625 110.625 C-14.91584961 110.82609375 -14.91584961 110.82609375 -16.80664062 111.03125 C-19.87030388 111.36245684 -22.9346377 111.68497255 -26 112 C-26 111.34 -26 110.68 -26 110 C-20 108 -20 108 0 106 C0 71.02 0 36.04 0 0 Z " fill="#6E5D32" transform="translate(96,86)"/>
<path d="M0 0 C15.75464689 0.93603264 31.10202202 2.57811497 46.60205078 5.55810547 C48.74040902 5.95216253 50.87460546 6.2939024 53.02734375 6.59765625 C54.11144531 6.75105469 55.19554687 6.90445313 56.3125 7.0625 C57.19550781 7.17722656 58.07851562 7.29195312 58.98828125 7.41015625 C61 8 61 8 63 11 C57.18382933 12.57142008 52.60292745 11.20119347 46.9375 9.75 C31.46856045 6.01486758 15.89795969 3.77485854 0 3 C0 2.01 0 1.02 0 0 Z " fill="#5E4726" transform="translate(180,193)"/>
<path d="M0 0 C0 0.66 0 1.32 0 2 C-2.95716407 2.83752161 -5.915913 3.66930031 -8.875 4.5 C-10.13763672 4.85771484 -10.13763672 4.85771484 -11.42578125 5.22265625 C-12.63427734 5.56103516 -12.63427734 5.56103516 -13.8671875 5.90625 C-14.61081543 6.11572266 -15.35444336 6.32519531 -16.12060547 6.54101562 C-18 7 -18 7 -20 7 C-20 7.66 -20 8.32 -20 9 C-20.66 9 -21.32 9 -22 9 C-22 10.32 -22 11.64 -22 13 C-25.94021786 15.6268119 -29.89113881 16.49573542 -34.4375 17.6875 C-35.72624023 18.04424805 -35.72624023 18.04424805 -37.04101562 18.40820312 C-37.87181641 18.62798828 -38.70261719 18.84777344 -39.55859375 19.07421875 C-40.69252563 19.37718872 -40.69252563 19.37718872 -41.84936523 19.6862793 C-44.20250616 20.02954029 -45.75475491 19.72719845 -48 19 C-47 16 -47 16 -44.90893555 14.83666992 C-43.994104 14.47162354 -43.07927246 14.10657715 -42.13671875 13.73046875 C-41.11328369 13.31909668 -40.08984863 12.90772461 -39.03540039 12.48388672 C-37.93059326 12.0560791 -36.82578613 11.62827148 -35.6875 11.1875 C-34.00805298 10.52645264 -34.00805298 10.52645264 -32.29467773 9.85205078 C-6.83783051 0 -6.83783051 0 0 0 Z " fill="#987C53" transform="translate(80,185)"/>
<path d="M0 0 C0.66 0 1.32 0 2 0 C2.52982737 7.74136665 1.99917545 14.20385521 -2 21 C-5.37756354 24.84717131 -9.57189959 27.7294302 -14.69921875 28.30078125 C-24.77371487 28.34028908 -31.76050114 26.96447387 -39.19921875 19.8984375 C-41.91492074 17.03546317 -44.02424264 14.44164185 -46 11 C-45.8125 8.0625 -45.8125 8.0625 -45 6 C-42.2175651 7.39121745 -41.44789935 9.30164212 -40 12 C-40 12.66 -40 13.32 -40 14 C-39.34 14 -38.68 14 -38 14 C-38 14.99 -38 15.98 -38 17 C-37.34 17 -36.68 17 -36 17 C-34.33333333 18.66666667 -32.66666667 20.33333333 -31 22 C-26.37702847 25.80715302 -20.82523676 26.28475319 -15 26 C-10.40952406 24.61545322 -7.6705655 23.00584826 -5 19 C-4.34 19 -3.68 19 -3 19 C-2.855625 18.236875 -2.71125 17.47375 -2.5625 16.6875 C-2 14 -2 14 -1 11 C-0.77820215 9.10787263 -0.59385985 7.21115528 -0.4375 5.3125 C-0.35371094 4.31863281 -0.26992187 3.32476562 -0.18359375 2.30078125 C-0.09271484 1.16189453 -0.09271484 1.16189453 0 0 Z " fill="#5F4A25" transform="translate(250,75)"/>
<path d="M0 0 C0.33 0 0.66 0 1 0 C1.76026897 31.33885291 2.14835248 62.6519798 2 94 C1.01 94 0.02 94 -1 94 C-1.161305 71.95332875 -0.88302285 49.91779253 -0.5 27.875 C-0.48804218 27.18663559 -0.47608437 26.49827118 -0.46376419 25.78904724 C-0.31398692 17.19261038 -0.15926836 8.59626629 0 0 Z " fill="#6F5931" transform="translate(128,84)"/>
<path d="M0 0 C6.08723655 -0.02467081 12.17444417 -0.04284604 18.26171875 -0.05493164 C20.33366401 -0.05996852 22.4056057 -0.06679825 24.47753906 -0.07543945 C27.45118082 -0.08753321 30.42477569 -0.09323467 33.3984375 -0.09765625 C34.32868744 -0.10281754 35.25893738 -0.10797882 36.21737671 -0.11329651 C37.07811798 -0.11337204 37.93885925 -0.11344757 38.82568359 -0.11352539 C39.58513275 -0.115746 40.34458191 -0.11796661 41.12704468 -0.12025452 C43 0 43 0 45 1 C45 2.98 45 4.96 45 7 C44.34 7.33 43.68 7.66 43 8 C42.87625 7.360625 42.7525 6.72125 42.625 6.0625 C42.41875 5.381875 42.2125 4.70125 42 4 C38.72684491 2.36342246 35.09377769 2.7569193 31.4921875 2.68359375 C30.65156769 2.66281265 29.81094788 2.64203156 28.94485474 2.62062073 C26.25498765 2.55514561 23.56502157 2.4962498 20.875 2.4375 C19.05337511 2.39431284 17.23176029 2.35069848 15.41015625 2.30664062 C10.94020606 2.19946632 6.47015614 2.09819315 2 2 C2.02030273 2.67691895 2.04060547 3.35383789 2.06152344 4.05126953 C2.07731445 4.94442871 2.09310547 5.83758789 2.109375 6.7578125 C2.12967773 7.64098145 2.14998047 8.52415039 2.17089844 9.43408203 C1.83433593 14.48732761 -0.850782 17.68177936 -4.125 21.4375 C-6 23 -6 23 -8 23 C-7.60037733 20.20264131 -7.13107145 19.12684334 -5.0625 17.125 C-1.47433331 13.42810099 -0.9678887 9.2496494 -0.44921875 4.29296875 C-0.32099731 3.08483521 -0.32099731 3.08483521 -0.19018555 1.85229492 C-0.12742432 1.2410376 -0.06466309 0.62978027 0 0 Z " fill="#654924" transform="translate(181,223)"/>
<path d="M0 0 C16.80228484 0.1071023 33.60452106 0.21983874 50.40672207 0.33933926 C58.20773741 0.39468927 66.00875732 0.44817413 73.80981445 0.49731445 C80.60679182 0.54013457 87.40373527 0.58640698 94.20066029 0.63687855 C97.80176138 0.66349707 101.40285566 0.68835049 105.0039959 0.70907402 C109.01760752 0.73223574 113.03112348 0.76310277 117.04467773 0.79467773 C118.24732773 0.8004332 119.44997772 0.80618866 120.68907166 0.81211853 C121.77587219 0.82190735 122.86267273 0.83169617 123.98240662 0.84178162 C124.93277518 0.84823417 125.88314375 0.85468672 126.86231136 0.8613348 C129 1 129 1 130 2 C130.07205511 3.68608966 130.08386068 5.37500659 130.0625 7.0625 C130.05347656 7.98160156 130.04445312 8.90070312 130.03515625 9.84765625 C130.01775391 10.91306641 130.01775391 10.91306641 130 12 C129.34 12.33 128.68 12.66 128 13 C127.505 7.555 127.505 7.555 127 2 C85.42 2 43.84 2 1 2 C0.67 1.34 0.34 0.68 0 0 Z " fill="#6A5124" transform="translate(81,22)"/>
<path d="M0 0 C0.33 0 0.66 0 1 0 C1.60822898 7.17710197 1.60822898 7.17710197 -1.125 10.875 C-9.72346887 17.23039003 -21.04009303 16.10702879 -31.22265625 15.9609375 C-35.38767963 15.92456175 -39.40203846 15.98113087 -43.53125 16.5625 C-47 17 -47 17 -49 16 C-49 15.01 -49 14.02 -49 13 C-47.33614258 12.98598145 -47.33614258 12.98598145 -45.63867188 12.97167969 C-41.49341794 12.93157898 -37.3488906 12.86576602 -33.20410156 12.79248047 C-31.4157856 12.76438666 -29.62734814 12.74311486 -27.83886719 12.72900391 C-25.25653398 12.70741249 -22.67564381 12.66068291 -20.09375 12.609375 C-18.90888 12.60753204 -18.90888 12.60753204 -17.70007324 12.60565186 C-12.0949567 12.46025921 -7.68061318 11.16660743 -3 8 C-1.47038775 5.97255548 -1.47038775 5.97255548 -1 3.75 C-0.67 2.5125 -0.34 1.275 0 0 Z " fill="#3E280E" transform="translate(73,248)"/>
<path d="M0 0 C0.99 0.66 1.98 1.32 3 2 C2.67 3.32 2.34 4.64 2 6 C1.67 5.67 1.34 5.34 1 5 C0.67 6.65 0.34 8.3 0 10 C-0.99 10 -1.98 10 -3 10 C-3 10.66 -3 11.32 -3 12 C-5.07553648 12.5534764 -6.84365964 13 -9 13 C-9.99 13.66 -10.98 14.32 -12 15 C-12.99 14.67 -13.98 14.34 -15 14 C-14.175 13.21625 -13.35 12.4325 -12.5 11.625 C-9.77011494 9.36278736 -9.77011494 9.36278736 -10 7 C-11.485 9.475 -11.485 9.475 -13 12 C-13.66 11.67 -14.32 11.34 -15 11 C-14.26420788 9.53444684 -13.51074874 8.07775513 -12.75 6.625 C-12.33234375 5.81289062 -11.9146875 5.00078125 -11.484375 4.1640625 C-8.52694829 -0.14755434 -4.9968937 -0.42526755 0 0 Z " fill="#8F7338" transform="translate(67,75)"/>
<path d="M0 0 C1.33897583 0.95043374 2.67105427 1.91059147 4 2.875 C5.11375 3.67550781 5.11375 3.67550781 6.25 4.4921875 C6.8275 4.98976562 7.405 5.48734375 8 6 C8 6.66 8 7.32 8 8 C20.54 8.33 33.08 8.66 46 9 C46.33 8.34 46.66 7.68 47 7 C47 8.32 47 9.64 47 11 C42.76709081 13.11645459 37.2364781 12.22703998 32.58105469 12.24023438 C30.53537654 12.24983399 28.49075014 12.28080315 26.4453125 12.3125 C9.07855489 12.38073873 9.07855489 12.38073873 3.29052734 7.58300781 C0.97583306 4.99444664 0 3.5166623 0 0 Z " fill="#4F3914" transform="translate(81,251)"/>
<path d="M0 0 C2.60444348 -0.05394705 5.20776998 -0.09364469 7.8125 -0.125 C8.55048828 -0.14175781 9.28847656 -0.15851563 10.04882812 -0.17578125 C13.91246426 -0.21074628 15.70903668 -0.19397555 19 2 C19.84375 3.83984375 19.84375 3.83984375 20.5 5.9375 C21.47836548 9.05312817 22.25312011 11.12324976 25 13 C27.62939205 13.37644848 30.05072472 13.60133087 32.6875 13.6875 C33.7403418 13.73874023 33.7403418 13.73874023 34.81445312 13.79101562 C36.54241387 13.87329947 38.27118072 13.9383324 40 14 C39.34 14.99 38.68 15.98 38 17 C32.67192018 17.81339917 25.8501572 18.49633253 20.96875 15.93359375 C17.74440696 12.32586846 16.87441906 7.61057322 16 3 C13.89590361 2.97298592 11.79170822 2.95359777 9.6875 2.9375 C8.51574219 2.92589844 7.34398437 2.91429687 6.13671875 2.90234375 C2.96940805 2.85100102 2.96940805 2.85100102 0 4 C0 2.68 0 1.36 0 0 Z " fill="#37250B" transform="translate(200,247)"/>
<path d="M0 0 C2.60423592 -0.02697137 5.20819244 -0.04682489 7.8125 -0.0625 C8.55048828 -0.07087891 9.28847656 -0.07925781 10.04882812 -0.08789062 C13.29922068 -0.10259828 15.89404895 -0.03531702 19 1 C20.1328125 2.99609375 20.1328125 2.99609375 21.125 5.4375 C21.45757812 6.24058594 21.79015625 7.04367188 22.1328125 7.87109375 C22.41898438 8.57363281 22.70515625 9.27617187 23 10 C23.33 10.66 23.66 11.32 24 12 C27.31544299 13.10514766 30.20410111 13.32107631 33.6875 13.5625 C34.86699219 13.64628906 36.04648438 13.73007812 37.26171875 13.81640625 C38.16535156 13.87699219 39.06898438 13.93757813 40 14 C39.67 14.99 39.34 15.98 39 17 C26.74120999 18.05795037 26.74120999 18.05795037 22.83984375 15.6875 C19.59342634 11.96781969 17.69002179 7.60061487 16 3 C13.89590361 2.97298592 11.79170822 2.95359777 9.6875 2.9375 C8.51574219 2.92589844 7.34398437 2.91429687 6.13671875 2.90234375 C2.96940805 2.85100102 2.96940805 2.85100102 0 4 C0 2.68 0 1.36 0 0 Z " fill="#362108" transform="translate(144,247)"/>
<path d="M0 0 C0 0.99 0 1.98 0 3 C-4.14369781 4.98759945 -7.47907025 5.23422068 -12.05078125 5.1953125 C-12.70958786 5.1924826 -13.36839447 5.18965271 -14.04716492 5.18673706 C-16.13580062 5.17560924 -18.22399556 5.15051948 -20.3125 5.125 C-21.73501982 5.11496059 -23.1575464 5.10583642 -24.58007812 5.09765625 C-28.05368873 5.07740196 -31.52635539 5.03824196 -35 5 C-35 12.92 -35 20.84 -35 29 C-35.33 29 -35.66 29 -36 29 C-36 21.08 -36 13.16 -36 5 C-36.66 4.67 -37.32 4.34 -38 4 C-34.9130287 2.20122595 -32.73981661 1.76776048 -29.18359375 1.83984375 C-28.25893311 1.85152588 -27.33427246 1.86320801 -26.3815918 1.87524414 C-25.4100415 1.89578857 -24.43849121 1.91633301 -23.4375 1.9375 C-12.1755903 2.18458737 -12.1755903 2.18458737 -1 1 C-0.67 0.67 -0.34 0.34 0 0 Z " fill="#AD976B" transform="translate(170,232)"/>
<path d="M0 0 C0.66 0.66 1.32 1.32 2 2 C1.83191943 7.71473944 -1.80701153 12.91010073 -5.828125 16.7421875 C-12.59686456 22.09855227 -18.99990062 24.58167513 -27.671875 24.2890625 C-33.05283575 23.62095663 -36.47132922 20.9358251 -40 17 C-39.67 16.34 -39.34 15.68 -39 15 C-36.96166576 16.2739589 -34.96147874 17.61061923 -33 19 C-33 19.66 -33 20.32 -33 21 C-25.07352576 22.38637953 -19.01429618 22.215723 -12 18 C-8.81681642 15.39083313 -5.85590413 12.71180827 -4 9 C-3.34 9 -2.68 9 -2 9 C-1.855625 7.700625 -1.71125 6.40125 -1.5625 5.0625 C-1.125 1.125 -1.125 1.125 0 0 Z " fill="#6C5228" transform="translate(68,79)"/>
<path d="M0 0 C0.33 0 0.66 0 1 0 C1 7.26 1 14.52 1 22 C4.96 22 8.92 22 13 22 C12.34 23.32 11.68 24.64 11 26 C9.18757948 26.02687279 7.37504767 26.04633715 5.5625 26.0625 C4.55316406 26.07410156 3.54382813 26.08570313 2.50390625 26.09765625 C0 26 0 26 -1 25 C-2.1692368 17.33500323 -2.09909001 9.74003104 -2 2 C-1.34 2 -0.68 2 0 2 C0 1.34 0 0.68 0 0 Z " fill="#5E4C28" transform="translate(188,238)"/>
<path d="M0 0 C2.4294516 3.6441774 2.16179575 5.71241272 2 10 C1.67 10 1.34 10 1 10 C0.34 7.69 -0.32 5.38 -1 3 C-4.3 2.67 -7.6 2.34 -11 2 C-11.33 17.51 -11.66 33.02 -12 49 C-12.33 49 -12.66 49 -13 49 C-13.33 36.46 -13.66 23.92 -14 11 C-14.33 11 -14.66 11 -15 11 C-15.05399736 9.54207116 -15.09279177 8.08357288 -15.125 6.625 C-15.15980469 5.40683594 -15.15980469 5.40683594 -15.1953125 4.1640625 C-15 2 -15 2 -13 0 C-8.41947849 -0.96895647 -4.53568783 -1.26577335 0 0 Z " fill="#907B4E" transform="translate(159,79)"/>
<path d="M0 0 C1.25244003 0.0028299 2.50488007 0.00565979 3.79527283 0.00857544 C7.09472481 0.01782096 10.39397447 0.03573089 13.69335938 0.0579834 C17.07224068 0.07859131 20.45115183 0.08760882 23.83007812 0.09765625 C30.43757794 0.1196262 37.04494432 0.15303573 43.65234375 0.1953125 C43.65234375 0.5253125 43.65234375 0.8553125 43.65234375 1.1953125 C42.97440262 1.20561996 42.29646149 1.21592743 41.59797668 1.22654724 C34.54137772 1.33473525 27.48490327 1.44932334 20.4284668 1.56762695 C17.79502976 1.61093633 15.16156536 1.65261425 12.52807617 1.69262695 C8.74259192 1.75042605 4.95724486 1.81409317 1.171875 1.87890625 C-0.59400215 1.90397499 -0.59400215 1.90397499 -2.39555359 1.92955017 C-3.49631729 1.94949539 -4.59708099 1.96944061 -5.73120117 1.98999023 C-7.18015022 2.01330666 -7.18015022 2.01330666 -8.65837097 2.03709412 C-13.82122628 2.34083974 -19.25629977 3.10395602 -23.03515625 6.8828125 C-24.72870224 9.86667925 -25.51851161 12.87873393 -26.34765625 16.1953125 C-26.67765625 16.1953125 -27.00765625 16.1953125 -27.34765625 16.1953125 C-27.76576569 11.34524294 -27.86870998 9.10295449 -25.41015625 4.8203125 C-19.23696753 -1.5286161 -8.0891277 -0.06956332 0 0 Z " fill="#7D5E25" transform="translate(116.34765625,221.8046875)"/>
<path d="M0 0 C1.09054688 0.02320312 2.18109375 0.04640625 3.3046875 0.0703125 C4.40039062 0.08835937 5.49609375 0.10640625 6.625 0.125 C7.46804687 0.14820312 8.31109375 0.17140625 9.1796875 0.1953125 C9.1796875 0.5253125 9.1796875 0.8553125 9.1796875 1.1953125 C5.5496875 1.1953125 1.9196875 1.1953125 -1.8203125 1.1953125 C-1.8203125 27.5953125 -1.8203125 53.9953125 -1.8203125 81.1953125 C-2.1503125 81.1953125 -2.4803125 81.1953125 -2.8203125 81.1953125 C-3.1503125 57.4353125 -3.4803125 33.6753125 -3.8203125 9.1953125 C-4.1503125 9.1953125 -4.4803125 9.1953125 -4.8203125 9.1953125 C-4.9453125 5.8203125 -4.9453125 5.8203125 -4.8203125 2.1953125 C-2.8203125 0.1953125 -2.8203125 0.1953125 0 0 Z " fill="#9B7A42" transform="translate(118.8203125,78.8046875)"/>
<path d="M0 0 C0.66 0 1.32 0 2 0 C2 7.92 2 15.84 2 24 C5.63 24 9.26 24 13 24 C12.67 24.99 12.34 25.98 12 27 C10.741875 27.185625 9.48375 27.37125 8.1875 27.5625 C7.47980469 27.66691406 6.77210938 27.77132813 6.04296875 27.87890625 C4 28 4 28 1 27 C-0.3308911 24.33821779 -0.11268993 22.31260604 -0.09765625 19.3359375 C-0.09443359 18.21445313 -0.09121094 17.09296875 -0.08789062 15.9375 C-0.07951172 14.761875 -0.07113281 13.58625 -0.0625 12.375 C-0.05798828 11.19164062 -0.05347656 10.00828125 -0.04882812 8.7890625 C-0.03701467 5.85932493 -0.02054258 2.92968728 0 0 Z " fill="#765E34" transform="translate(132,237)"/>
<path d="M0 0 C1.62035156 0.23976562 1.62035156 0.23976562 3.2734375 0.484375 C6.72720634 0.91932784 10.12143116 1.08637693 13.6015625 1.140625 C14.58640625 1.15996094 15.57125 1.17929688 16.5859375 1.19921875 C18.61958947 1.23320008 20.6535658 1.25131195 22.6875 1.25390625 C31.00071829 1.46119122 31.00071829 1.46119122 34.7109375 4.546875 C35.46632812 5.35640625 36.22171875 6.1659375 37 7 C36.01 7.33 35.02 7.66 34 8 C33.64188232 7.5155542 33.28376465 7.0311084 32.91479492 6.53198242 C30.12478508 4.29976111 27.90190237 4.56554372 24.36328125 4.48828125 C23.06455078 4.45283203 21.76582031 4.41738281 20.42773438 4.38085938 C19.05599483 4.3577595 17.6842499 4.3349771 16.3125 4.3125 C14.92900393 4.27932458 13.54553871 4.24483469 12.16210938 4.20898438 C8.77482117 4.12636759 5.38779643 4.05725942 2 4 C1.34 2.68 0.68 1.36 0 0 Z " fill="#98794E" transform="translate(36,229)"/>
<path d="M0 0 C1.07636719 0.00322266 2.15273437 0.00644531 3.26171875 0.00976562 C4.38964844 0.01814453 5.51757812 0.02652344 6.6796875 0.03515625 C7.81535156 0.03966797 8.95101562 0.04417969 10.12109375 0.04882812 C12.93234388 0.0606401 15.7434898 0.07711118 18.5546875 0.09765625 C18.8846875 0.75765625 19.2146875 1.41765625 19.5546875 2.09765625 C18.84860352 2.09652832 18.14251953 2.09540039 17.41503906 2.09423828 C14.21061908 2.10635628 11.00857942 2.16400377 7.8046875 2.22265625 C6.69351563 2.22007812 5.58234375 2.2175 4.4375 2.21484375 C1.36422718 2.28889852 -1.44499791 2.42289812 -4.4453125 3.09765625 C-7.32789326 6.17903568 -8.80330303 8.92459469 -9.4453125 13.09765625 C-10.4353125 13.09765625 -11.4253125 13.09765625 -12.4453125 13.09765625 C-11.96963162 8.10300701 -10.49370359 5.06980222 -7.4453125 1.09765625 C-4.83580014 -0.20709993 -2.91829965 -0.01535947 0 0 Z " fill="#B39D7B" transform="translate(107.4453125,228.90234375)"/>
<path d="M0 0 C4.12578199 0.28120057 8.25040805 0.57689033 12.375 0.875 C14.10943359 0.99294922 14.10943359 0.99294922 15.87890625 1.11328125 C22.72180007 1.61586667 29.31449241 2.44278689 36 4 C36 4.33 36 4.66 36 5 C29.60187551 6.2796249 24.18101845 5.57444884 17.765625 4.546875 C11.86581916 3.69005672 5.95070699 3.34365785 0 3 C0 2.01 0 1.02 0 0 Z " fill="#664D22" transform="translate(180,193)"/>
<path d="M0 0 C0 0.66 0 1.32 0 2 C-2.95716407 2.83752161 -5.915913 3.66930031 -8.875 4.5 C-10.13763672 4.85771484 -10.13763672 4.85771484 -11.42578125 5.22265625 C-12.63427734 5.56103516 -12.63427734 5.56103516 -13.8671875 5.90625 C-14.61081543 6.11572266 -15.35444336 6.32519531 -16.12060547 6.54101562 C-18 7 -18 7 -20 7 C-20 7.66 -20 8.32 -20 9 C-20.66 9 -21.32 9 -22 9 C-22 10.32 -22 11.64 -22 13 C-25.4352048 15.29013653 -26.985331 15.17842973 -31 15 C-30.01 14.34 -29.02 13.68 -28 13 C-29.98 13 -31.96 13 -34 13 C-31.3144406 10.3144406 -28.62378672 9.93950026 -25 9 C-25 8.34 -25 7.68 -25 7 C-21.20970992 5.82882795 -17.41755098 4.66382785 -13.625 3.5 C-12.54476562 3.16613281 -11.46453125 2.83226562 -10.3515625 2.48828125 C-9.3203125 2.17246094 -8.2890625 1.85664063 -7.2265625 1.53125 C-6.27346191 1.23798828 -5.32036133 0.94472656 -4.33837891 0.64257812 C-2 0 -2 0 0 0 Z " fill="#9E8256" transform="translate(80,185)"/>
<path d="M0 0 C1.24716797 0.00644531 2.49433594 0.01289063 3.77929688 0.01953125 C5.07287109 0.03628906 6.36644531 0.05304688 7.69921875 0.0703125 C9.01212891 0.07933594 10.32503906 0.08835938 11.67773438 0.09765625 C14.91424788 0.12119453 18.15039024 0.1540773 21.38671875 0.1953125 C21.05671875 0.8553125 20.72671875 1.5153125 20.38671875 2.1953125 C19.52393311 2.20989502 18.66114746 2.22447754 17.7722168 2.23950195 C14.56822228 2.30059004 11.3648725 2.37474799 8.16137695 2.45776367 C6.77542498 2.49099799 5.38933814 2.51903476 4.00317383 2.54174805 C2.00965032 2.57531867 0.01650134 2.6291925 -1.9765625 2.68359375 C-3.17579346 2.70977783 -4.37502441 2.73596191 -5.6105957 2.76293945 C-8.58498102 2.94868976 -8.58498102 2.94868976 -10.45385742 4.55932617 C-11.93235863 6.64554151 -12.76847881 8.7908748 -13.61328125 11.1953125 C-14.60328125 10.8653125 -15.59328125 10.5353125 -16.61328125 10.1953125 C-15.9019546 8.89373607 -15.16832227 7.60433728 -14.42578125 6.3203125 C-14.01972656 5.60101563 -13.61367188 4.88171875 -13.1953125 4.140625 C-9.75492912 -0.08977234 -5.13476877 -0.04689287 0 0 Z " fill="#BEA985" transform="translate(40.61328125,247.8046875)"/>
<path d="M0 0 C11.55 0 23.1 0 35 0 C34 2 34 2 32.37207031 2.61889648 C29.23883743 3.12229053 26.22062318 3.11110434 23.046875 3.09765625 C22.38665344 3.0962413 21.72643188 3.09482635 21.04620361 3.09336853 C18.94742206 3.08779245 16.84874905 3.07524447 14.75 3.0625 C13.32291821 3.0574819 11.89583475 3.05291954 10.46875 3.04882812 C6.97913168 3.03783088 3.48957644 3.0205828 0 3 C0 2.01 0 1.02 0 0 Z " fill="#B09870" transform="translate(190,234)"/>
<path d="M0 0 C4.98157015 0.76639541 9.95859528 3.99815168 13 8 C14.33905258 12.26062184 14.07494362 16.5783266 14 21 C11.37829952 18.72592831 10.50055357 16.95665188 9.625 13.625 C8.2913432 9.31518277 6.58476515 6.86781212 3 4 C2.01 3.67 1.02 3.34 0 3 C0 2.01 0 1.02 0 0 Z " fill="#60491A" transform="translate(224,60)"/>
<path d="M0 0 C-0.74765625 0.36351562 -1.4953125 0.72703125 -2.265625 1.1015625 C-10.17415316 5.1386384 -13.83362173 8.40424675 -16.75 16.875 C-17.17570763 18.2472278 -17.59559427 19.62134409 -18 21 C-18.33 21 -18.66 21 -19 21 C-19.20735823 15.91972345 -18.88270981 11.75160096 -17 7 C-14.625 4.75 -14.625 4.75 -12 3 C-11.01 2.1646875 -11.01 2.1646875 -10 1.3125 C-6.49164317 -0.98985917 -3.95541122 -1.31847041 0 0 Z " fill="#5E4619" transform="translate(55,60)"/>
<path d="M0 0 C1.1653125 -0.00257812 2.330625 -0.00515625 3.53125 -0.0078125 C6.5 0.125 6.5 0.125 8.5 1.125 C8.5 1.785 8.5 2.445 8.5 3.125 C7.58476563 3.18558594 6.66953125 3.24617188 5.7265625 3.30859375 C4.53804687 3.39238281 3.34953125 3.47617187 2.125 3.5625 C0.94164063 3.64371094 -0.24171875 3.72492187 -1.4609375 3.80859375 C-4.41518901 3.93584936 -4.41518901 3.93584936 -6.5 5.125 C-6.96523063 7.02033342 -6.96523063 7.02033342 -7.125 9.1875 C-7.24875 10.486875 -7.3725 11.78625 -7.5 13.125 C-9.5 11.125 -9.5 11.125 -9.546875 8.77734375 C-9.44890625 7.88144531 -9.3509375 6.98554688 -9.25 6.0625 C-9.16234375 5.16402344 -9.0746875 4.26554687 -8.984375 3.33984375 C-8.82453125 2.60894531 -8.6646875 1.87804687 -8.5 1.125 C-5.64804778 -0.30097611 -3.17538825 -0.0070252 0 0 Z " fill="#6C5524" transform="translate(72.5,21.875)"/>
<path d="M0 0 C0.33 0 0.66 0 1 0 C3.1142071 11.40161688 3.20923895 22.44536021 3 34 C2.01 34 1.02 34 0 34 C0 22.78 0 11.56 0 0 Z " fill="#765B25" transform="translate(127,144)"/>
<path d="M0 0 C0.598125 0.78375 1.19625 1.5675 1.8125 2.375 C3.97138918 4.96566702 5.56511959 6.7704332 8.99291992 7.31884766 C10.10050659 7.365979 10.10050659 7.365979 11.23046875 7.4140625 C12.03291016 7.45273438 12.83535156 7.49140625 13.66210938 7.53125 C14.91217773 7.57765625 14.91217773 7.57765625 16.1875 7.625 C17.4549707 7.68300781 17.4549707 7.68300781 18.74804688 7.7421875 C20.83167524 7.83636279 22.91580753 7.91926675 25 8 C25.33 7.01 25.66 6.02 26 5 C26 6.65 26 8.3 26 10 C23.10391407 10.05413245 20.20884805 10.09373641 17.3125 10.125 C16.08756836 10.15013672 16.08756836 10.15013672 14.83789062 10.17578125 C9.56322299 10.21849111 5.58742478 9.87365243 1.1875 6.6875 C-0.42143133 4.4011239 -0.22133294 2.72977292 0 0 Z " fill="#B49E75" transform="translate(90,240)"/>
<path d="M0 0 C14.52 0 29.04 0 44 0 C43.34 1.32 42.68 2.64 42 4 C41.505 3.01 41.505 3.01 41 2 C35.82218777 1.97522943 30.64441025 1.95710653 25.46655273 1.94506836 C23.70612995 1.9400483 21.94571132 1.9332309 20.18530273 1.92456055 C17.65086846 1.91239297 15.11648946 1.90674834 12.58203125 1.90234375 C11.40674614 1.89460182 11.40674614 1.89460182 10.2077179 1.88670349 C6.34408861 1.88630934 2.754835 2.0555724 -1 3 C-0.67 2.01 -0.34 1.02 0 0 Z " fill="#775826" transform="translate(36,223)"/>
<path d="M0 0 C8.22104485 1.41742153 15.45299175 4.58613282 23 8 C19.22930529 9.25689824 17.22169112 8.58733573 13.375 7.6875 C11.62316406 7.29111328 11.62316406 7.29111328 9.8359375 6.88671875 C8.43214844 6.44779297 8.43214844 6.44779297 7 6 C6.67 5.34 6.34 4.68 6 4 C3.47266765 3.34444881 3.47266765 3.34444881 1 3 C0.67 2.01 0.34 1.02 0 0 Z " fill="#897244" transform="translate(215,192)"/>
<path d="M0 0 C0.33 0 0.66 0 1 0 C1.60822898 7.17710197 1.60822898 7.17710197 -1.125 10.875 C-6.3173452 14.71282037 -10.62354662 15.25505814 -17 15 C-14.8682484 13.90197481 -12.74928641 12.89781342 -10.52734375 11.9921875 C-5.3683334 9.8743704 -5.3683334 9.8743704 -1.68359375 5.89453125 C-0.7481521 3.47556818 -0.7481521 3.47556818 0 0 Z " fill="#4B3313" transform="translate(73,248)"/>
<path d="M0 0 C2.36092149 2.36092149 2.31949234 2.96250484 2.375 6.1875 C2.23772838 12.2862818 -0.1329126 15.85834092 -4.125 20.4375 C-6 22 -6 22 -8 22 C-7.60037733 19.20264131 -7.13107145 18.12684334 -5.0625 16.125 C-0.78334181 11.71617035 -0.60483204 5.84670975 0 0 Z " fill="#755A34" transform="translate(181,224)"/>
<path d="M0 0 C0.33 0 0.66 0 1 0 C1.33 12.21 1.66 24.42 2 37 C2.33 37 2.66 37 3 37 C3 39.97 3 42.94 3 46 C0.26578581 43.41400734 -0.22769963 41.30913846 -0.34057617 37.69042969 C-0.34010274 35.93417316 -0.32324488 34.17787061 -0.29296875 32.421875 C-0.28872391 31.4953009 -0.28447906 30.56872681 -0.28010559 29.61407471 C-0.26333322 26.65908566 -0.22568355 23.70478239 -0.1875 20.75 C-0.1724513 18.74480153 -0.15876322 16.73959235 -0.14648438 14.734375 C-0.11343438 9.82265304 -0.06166182 4.91144274 0 0 Z " fill="#84632E" transform="translate(190,137)"/>
<path d="M0 0 C2.60444348 -0.05394705 5.20776998 -0.09364469 7.8125 -0.125 C8.55048828 -0.14175781 9.28847656 -0.15851563 10.04882812 -0.17578125 C13.91246426 -0.21074628 15.70903668 -0.19397555 19 2 C18.67 3.98 18.34 5.96 18 8 C16 5 16 5 16 3 C13.89590361 2.97298592 11.79170822 2.95359777 9.6875 2.9375 C8.51574219 2.92589844 7.34398437 2.91429687 6.13671875 2.90234375 C2.96940805 2.85100102 2.96940805 2.85100102 0 4 C0 2.68 0 1.36 0 0 Z " fill="#584018" transform="translate(200,247)"/>
<path d="M0 0 C0.66 0 1.32 0 2 0 C3.27861615 2.55723229 3.11336609 4.36737102 3.09765625 7.2265625 C3.09282227 8.7734375 3.09282227 8.7734375 3.08789062 10.3515625 C3.07951172 11.43179688 3.07113281 12.51203125 3.0625 13.625 C3.05798828 14.71296875 3.05347656 15.8009375 3.04882812 16.921875 C3.03701776 19.61463789 3.02054778 22.30729188 3 25 C2.34 25 1.68 25 1 25 C0.97494385 24.40985107 0.9498877 23.81970215 0.92407227 23.21166992 C0.80799948 20.53673186 0.68532428 17.8621362 0.5625 15.1875 C0.52318359 14.25873047 0.48386719 13.32996094 0.44335938 12.37304688 C0.40146484 11.48037109 0.35957031 10.58769531 0.31640625 9.66796875 C0.27974854 8.84578857 0.24309082 8.0236084 0.20532227 7.17651367 C0.06572228 4.82094822 0.06572228 4.82094822 -1 2 C-0.67 1.34 -0.34 0.68 0 0 Z " fill="#90794A" transform="translate(188,235)"/>
<path d="M0 0 C0.66 0 1.32 0 2 0 C2.52304688 7.64229604 2.04447292 14.30914357 -2 21 C-4.140625 22.78125 -4.140625 22.78125 -6 24 C-6 21 -6 21 -5 19 C-4.34 19 -3.68 19 -3 19 C-2.7834375 17.8553125 -2.7834375 17.8553125 -2.5625 16.6875 C-2 14 -2 14 -1 11 C-0.77820215 9.10787263 -0.59385985 7.21115528 -0.4375 5.3125 C-0.35371094 4.31863281 -0.26992187 3.32476562 -0.18359375 2.30078125 C-0.12300781 1.54152344 -0.06242188 0.78226562 0 0 Z " fill="#6F582A" transform="translate(250,75)"/>
<path d="M0 0 C3.00409853 1.50204927 3.50961987 4.09159893 4.8046875 7.08984375 C6.27443155 9.43855237 7.42704779 10.03872975 10 11 C12.32495277 11.38749213 14.65851268 11.72982839 17 12 C17.33 10.68 17.66 9.36 18 8 C18.66 8 19.32 8 20 8 C20.33 7.34 20.66 6.68 21 6 C20.75 8.875 20.75 8.875 20 12 C17.75251552 13.83128365 16.05472248 13.99270367 13.1875 14.375 C9.13289481 13.89798762 6.00709925 12.74891396 3 10 C1.23168529 6.84941112 0 3.63672614 0 0 Z " fill="#AE9973" transform="translate(218,77)"/>
<path d="M0 0 C0.66 0 1.32 0 2 0 C2.68765777 12.87448161 2.68765777 12.87448161 0.375 16.6875 C-2.31111501 19.30292777 -4.3705271 20.1751198 -8 21 C-7.36771484 20.41605469 -7.36771484 20.41605469 -6.72265625 19.8203125 C-2.48921503 15.49722194 -1.30488133 12.36188778 -1.10546875 6.33203125 C-1.00370403 4.08190017 -0.62022795 2.15839327 0 0 Z " fill="#7D622F" transform="translate(236,224)"/>
<path d="M0 0 C0 0.66 0 1.32 0 2 C-8.58 2.99 -17.16 3.98 -26 5 C-26 4.34 -26 3.68 -26 3 C-17.77007249 -0.3364571 -8.75199111 -0.14347526 0 0 Z " fill="#6B5120" transform="translate(96,193)"/>
<path d="M0 0 C2.7824349 1.39121745 3.55210065 3.30164212 5 6 C5 6.66 5 7.32 5 8 C5.66 8 6.32 8 7 8 C7 8.99 7 9.98 7 11 C7.66 11 8.32 11 9 11 C9.33 11.99 9.66 12.98 10 14 C9.01 14.33 8.02 14.66 7 15 C5.84852339 13.73427767 4.70400686 12.46222094 3.5625 11.1875 C2.92441406 10.47980469 2.28632813 9.77210937 1.62890625 9.04296875 C0 7 0 7 -1 4 C-0.5625 1.8125 -0.5625 1.8125 0 0 Z " fill="#695220" transform="translate(205,81)"/>
<path d="M0 0 C2.60423592 -0.02697137 5.20819244 -0.04682489 7.8125 -0.0625 C8.55048828 -0.07087891 9.28847656 -0.07925781 10.04882812 -0.08789062 C13.29922068 -0.10259828 15.89404895 -0.03531702 19 1 C20.1875 3.5625 20.1875 3.5625 21 6 C20.31164062 5.51015625 19.62328125 5.0203125 18.9140625 4.515625 C15.4594269 2.71884402 13.24377 2.66106276 9.375 2.75 C7.68503906 2.77320313 7.68503906 2.77320313 5.9609375 2.796875 C2.94345522 2.87964954 2.94345522 2.87964954 0 4 C0 2.68 0 1.36 0 0 Z " fill="#674D1A" transform="translate(144,247)"/>
<path d="M0 0 C-0.33 0.66 -0.66 1.32 -1 2 C-2.670625 2.433125 -2.670625 2.433125 -4.375 2.875 C-7.93120418 3.69127595 -7.93120418 3.69127595 -9.8125 5.6875 C-11.35518137 8.69166898 -12.18293838 11.73175354 -13 15 C-13.33 15 -13.66 15 -14 15 C-14.66964286 7.23214286 -14.66964286 7.23214286 -11.625 3.5625 C-7.62991839 -0.33746062 -5.49646543 -0.1017864 0 0 Z " fill="#664B20" transform="translate(103,223)"/>
<path d="M0 0 C0.66 0.33 1.32 0.66 2 1 C2.02896822 5.43748635 2.04678788 9.87494847 2.0625 14.3125 C2.07087891 15.57513672 2.07925781 16.83777344 2.08789062 18.13867188 C2.09111328 19.34716797 2.09433594 20.55566406 2.09765625 21.80078125 C2.10289307 22.91622314 2.10812988 24.03166504 2.11352539 25.1809082 C2 28 2 28 1 31 C0.34 31 -0.32 31 -1 31 C-0.67 20.77 -0.34 10.54 0 0 Z " fill="#67542F" transform="translate(159,161)"/>
<path d="M0 0 C2.4294516 3.6441774 2.16179575 5.71241272 2 10 C1.67 10 1.34 10 1 10 C0.34 7.69 -0.32 5.38 -1 3 C-5.29 2.67 -9.58 2.34 -14 2 C-13.67 1.34 -13.34 0.68 -13 0 C-8.42797387 -0.98612328 -4.52798822 -1.26362462 0 0 Z " fill="#A4916C" transform="translate(159,79)"/>
<path d="M0 0 C0.99 0 1.98 0 3 0 C3 2.64 3 5.28 3 8 C3.66 8 4.32 8 5 8 C5.66 10.64 6.32 13.28 7 16 C6.01 16 5.02 16 4 16 C2.07528683 10.66164461 0.60108576 5.65020618 0 0 Z " fill="#755A2D" transform="translate(76,236)"/>
<path d="M0 0 C0.33 0 0.66 0 1 0 C1 10.23 1 20.46 1 31 C-2.375 26.5 -2.375 26.5 -2 22 C-1.34 22 -0.68 22 0 22 C0 14.74 0 7.48 0 0 Z " fill="#94753D" transform="translate(116,160)"/>
<path d="M0 0 C0.33 0 0.66 0 1 0 C1 4.62 1 9.24 1 14 C0.01 14.33 -0.98 14.66 -2 15 C-2 10.71 -2 6.42 -2 2 C-1.34 2 -0.68 2 0 2 C0 1.34 0 0.68 0 0 Z " fill="#644E27" transform="translate(188,238)"/>
<path d="M0 0 C1.09054688 0.02320312 2.18109375 0.04640625 3.3046875 0.0703125 C4.40039062 0.08835937 5.49609375 0.10640625 6.625 0.125 C7.46804687 0.14820312 8.31109375 0.17140625 9.1796875 0.1953125 C9.1796875 0.5253125 9.1796875 0.8553125 9.1796875 1.1953125 C5.5496875 1.1953125 1.9196875 1.1953125 -1.8203125 1.1953125 C-1.8203125 6.4753125 -1.8203125 11.7553125 -1.8203125 17.1953125 C-2.1503125 17.1953125 -2.4803125 17.1953125 -2.8203125 17.1953125 C-3.1503125 14.5553125 -3.4803125 11.9153125 -3.8203125 9.1953125 C-4.1503125 9.1953125 -4.4803125 9.1953125 -4.8203125 9.1953125 C-4.9453125 5.8203125 -4.9453125 5.8203125 -4.8203125 2.1953125 C-2.8203125 0.1953125 -2.8203125 0.1953125 0 0 Z " fill="#A88F61" transform="translate(118.8203125,78.8046875)"/>
<path d="M0 0 C4.29 0 8.58 0 13 0 C12.67 0.99 12.34 1.98 12 3 C10.741875 3.185625 9.48375 3.37125 8.1875 3.5625 C7.12595703 3.71912109 7.12595703 3.71912109 6.04296875 3.87890625 C4 4 4 4 1 3 C0.67 2.01 0.34 1.02 0 0 Z " fill="#2F2109" transform="translate(132,261)"/>
<path d="M0 0 C0.99 0 1.98 0 3 0 C4.82421875 2.30078125 4.82421875 2.30078125 6.6875 5.3125 C7.31011719 6.29863281 7.93273437 7.28476563 8.57421875 8.30078125 C10 11 10 11 10 14 C9.34 14 8.68 14 8 14 C6.5625 12.20703125 6.5625 12.20703125 5 9.8125 C4.484375 9.03519531 3.96875 8.25789062 3.4375 7.45703125 C2.01759573 5.0300753 0.97310029 2.63392049 0 0 Z " fill="#A99475" transform="translate(173,246)"/>
<path d="M0 0 C1.5 1.375 1.5 1.375 3 3 C3 3.66 3 4.32 3 5 C3.99 4.67 4.98 4.34 6 4 C6 4.66 6 5.32 6 6 C1.71 6 -2.58 6 -7 6 C-7.33 5.34 -7.66 4.68 -8 4 C-5.36 3.67 -2.72 3.34 0 3 C0 2.01 0 1.02 0 0 Z " fill="#856D3A" transform="translate(178,255)"/>
<path d="M0 0 C0 0.99 0 1.98 0 3 C-4.1839665 5.06440531 -7.20635871 5.0902668 -11.8125 4.625 C-13.55466797 4.45871094 -13.55466797 4.45871094 -15.33203125 4.2890625 C-16.21246094 4.19367188 -17.09289062 4.09828125 -18 4 C-18 3.67 -18 3.34 -18 3 C-16.78441406 2.86722656 -15.56882813 2.73445312 -14.31640625 2.59765625 C-12.73174516 2.41949909 -11.1471111 2.24110125 -9.5625 2.0625 C-8.35883789 1.93198242 -8.35883789 1.93198242 -7.13085938 1.79882812 C-3.24423336 1.69451606 -3.24423336 1.69451606 0 0 Z " fill="#B9A582" transform="translate(170,232)"/>
<path d="M0 0 C0.66 1.98 1.32 3.96 2 6 C0.02 6.66 -1.96 7.32 -4 8 C-4 7.01 -4 6.02 -4 5 C-4.66 4.34 -5.32 3.68 -6 3 C-3.375 0 -3.375 0 0 0 Z " fill="#947843" transform="translate(228,230)"/>
<path d="M0 0 C0.66 0.66 1.32 1.32 2 2 C1.73314868 6.66989808 -0.62840087 10.09833692 -3 14 C-3.66 14 -4.32 14 -5 14 C-4.67 12.35 -4.34 10.7 -4 9 C-3.34 9 -2.68 9 -2 9 C-1.7834375 7.0509375 -1.7834375 7.0509375 -1.5625 5.0625 C-1.125 1.125 -1.125 1.125 0 0 Z " fill="#644C22" transform="translate(68,79)"/>
<path d="M0 0 C3.63 0 7.26 0 11 0 C11 0.99 11 1.98 11 3 C7.37 3 3.74 3 0 3 C0 2.01 0 1.02 0 0 Z " fill="#37270E" transform="translate(188,261)"/>
<path d="M0 0 C0.66 0 1.32 0 2 0 C1.69147815 1.958964 1.3780582 3.91715713 1.0625 5.875 C0.88847656 6.96554688 0.71445312 8.05609375 0.53515625 9.1796875 C0 12 0 12 -1 14 C-1.66 14 -2.32 14 -3 14 C-2.67 10.37 -2.34 6.74 -2 3 C-1.34 3 -0.68 3 0 3 C0 2.01 0 1.02 0 0 Z " fill="#7F6733" transform="translate(26,68)"/>
<path d="M0 0 C0.99 1.32 1.98 2.64 3 4 C1.875 6 1.875 6 0 8 C-3.1875 8.25 -3.1875 8.25 -6 8 C-5.01 7.34 -4.02 6.68 -3 6 C-2.67 5.67 -2.34 5.34 -2 5 C-2.99 4.67 -3.98 4.34 -5 4 C-4.34 4 -3.68 4 -3 4 C-2.67 3.01 -2.34 2.02 -2 1 C-1.34 0.67 -0.68 0.34 0 0 Z " fill="#917744" transform="translate(171,229)"/>
<path d="M0 0 C0 0.99 0 1.98 0 3 C-3.96 2.67 -7.92 2.34 -12 2 C-12.33 2.99 -12.66 3.98 -13 5 C-12.67 3.35 -12.34 1.7 -12 0 C-7.91556885 -1.53166168 -4.20544343 -0.63081652 0 0 Z " fill="#AB966C" transform="translate(96,79)"/>
<path d="M0 0 C-1.98 0.99 -1.98 0.99 -4 2 C-3.67 2.66 -3.34 3.32 -3 4 C-3.99 4.495 -3.99 4.495 -5 5 C-5.46523063 6.89533342 -5.46523063 6.89533342 -5.625 9.0625 C-5.74875 10.361875 -5.8725 11.66125 -6 13 C-8 11 -8 11 -8.046875 8.65234375 C-7.94890625 7.75644531 -7.8509375 6.86054688 -7.75 5.9375 C-7.66234375 5.03902344 -7.5746875 4.14054687 -7.484375 3.21484375 C-7.32453125 2.48394531 -7.1646875 1.75304687 -7 1 C-4.53721199 -0.231394 -2.7204945 -0.07159196 0 0 Z " fill="#77623C" transform="translate(71,22)"/>
<path d="M0 0 C3.22393966 1.11170333 3.94453563 1.89350841 5.5625 5 C6.036875 5.99 6.51125 6.98 7 8 C7.99 8.66 8.98 9.32 10 10 C8.68 10.33 7.36 10.66 6 11 C2.90407165 7.4912812 1.25805377 4.50802601 0 0 Z " fill="#4D3A13" transform="translate(161,251)"/>
<path d="M0 0 C2.54620938 0.3637442 3.68180393 0.57966691 5.265625 2.671875 C8.54945055 9.6043956 8.54945055 9.6043956 8 14 C7.60167969 13.15501953 7.60167969 13.15501953 7.1953125 12.29296875 C5.91210122 9.83138372 4.44224012 7.60279052 2.875 5.3125 C0 1.11004785 0 1.11004785 0 0 Z " fill="#7D6630" transform="translate(243,61)"/>
<path d="M0 0 C4.2295083 1.4098361 5.08210924 4.16421847 7 8 C5.68 8.33 4.36 8.66 3 9 C0.90250005 6.64031256 0.03094296 5.45383006 -0.1875 2.25 C-0.125625 1.5075 -0.06375 0.765 0 0 Z " fill="#4B320D" transform="translate(218,253)"/>
<path d="M0 0 C0.36629408 4.27343092 -0.59185923 6.48812804 -3 10 C-4.32 9.34 -5.64 8.68 -7 8 C-6.34 8 -5.68 8 -5 8 C-4.71125 6.865625 -4.4225 5.73125 -4.125 4.5625 C-3.75375 3.386875 -3.3825 2.21125 -3 1 C-1 0 -1 0 0 0 Z " fill="#8F7243" transform="translate(66,239)"/>
<path d="M0 0 C0.78375 0.04125 1.5675 0.0825 2.375 0.125 C0.75905168 2.16619788 -0.9106382 4.16572937 -2.625 6.125 C-3.285 6.125 -3.945 6.125 -4.625 6.125 C-4.955 7.115 -5.285 8.105 -5.625 9.125 C-4.6356383 0.22074468 -4.6356383 0.22074468 0 0 Z " fill="#8C7342" transform="translate(30.625,214.875)"/>
<path d="M0 0 C0.66386719 0.08378906 1.32773437 0.16757813 2.01171875 0.25390625 C8.54720848 1.05425042 8.54720848 1.05425042 15 0 C12.6720413 2.76818166 11.07908346 3.46055679 7.5 3.8125 C6.33984375 3.94591797 6.33984375 3.94591797 5.15625 4.08203125 C3 4 3 4 0 2 C0 1.34 0 0.68 0 0 Z " fill="#B69F78" transform="translate(37,87)"/>
<path d="M0 0 C3.74007011 1.24669004 4.51247157 2.68513508 6.75 5.875 C7.70132813 7.20144531 7.70132813 7.20144531 8.671875 8.5546875 C9.11015625 9.36164063 9.5484375 10.16859375 10 11 C9.67 11.99 9.34 12.98 9 14 C7.6827656 12.23268551 6.37136412 10.46102239 5.0625 8.6875 C4.33160156 7.70136719 3.60070312 6.71523437 2.84765625 5.69921875 C1 3 1 3 0 0 Z " fill="#9A815A" transform="translate(228,246)"/>
<path d="M0 0 C0.99 0.33 1.98 0.66 3 1 C3 3.97 3 6.94 3 10 C1.35 10.66 -0.3 11.32 -2 12 C-1.34 8.04 -0.68 4.08 0 0 Z " fill="#8C7247" transform="translate(82,175)"/>
<path d="M0 0 C-0.928125 0.391875 -1.85625 0.78375 -2.8125 1.1875 C-6.26085199 3.1483276 -7.29399263 4.4981954 -9 8 C-9.33 8.66 -9.66 9.32 -10 10 C-10.99 9.67 -11.98 9.34 -13 9 C-8.93065244 1.55395979 -8.93065244 1.55395979 -5.375 -0.5625 C-3 -1 -3 -1 0 0 Z " fill="#A59269" transform="translate(37,249)"/>
<path d="M0 0 C5.94 0 11.88 0 18 0 C17.34 1.32 16.68 2.64 16 4 C15.67 3.34 15.34 2.68 15 2 C10.38 2 5.76 2 1 2 C0.67 1.34 0.34 0.68 0 0 Z " fill="#6C4C27" transform="translate(62,223)"/>
<path d="M0 0 C0.33 0 0.66 0 1 0 C1.98248524 4.0527516 2.08159574 7.83861737 2 12 C1.01 12.495 1.01 12.495 0 13 C0 12.01 0 11.02 0 10 C-0.66 10 -1.32 10 -2 10 C-2.17942163 6.05272412 -2.09350689 3.4019487 0 0 Z " fill="#8A7040" transform="translate(238,75)"/>
<path d="M0 0 C-0.33 0.99 -0.66 1.98 -1 3 C-5.455 3.495 -5.455 3.495 -10 4 C-10 3.34 -10 2.68 -10 2 C-6.38026598 0.68373308 -3.90432869 0 0 0 Z " fill="#6E5639" transform="translate(44,200)"/>
<path d="M0 0 C0.33 0 0.66 0 1 0 C1.49230769 7.38461538 1.49230769 7.38461538 -1 10.5 C-1.66 10.995 -2.32 11.49 -3 12 C-4.21386936 8.35839192 -3.6674695 7.66834531 -2.0625 4.3125 C-1.49208984 3.10013672 -1.49208984 3.10013672 -0.91015625 1.86328125 C-0.60980469 1.24839844 -0.30945313 0.63351563 0 0 Z " fill="#574319" transform="translate(73,248)"/>
<path d="M0 0 C0.80824219 0.11085937 1.61648437 0.22171875 2.44921875 0.3359375 C3.37154297 0.47902344 3.37154297 0.47902344 4.3125 0.625 C4.3125 1.615 4.3125 2.605 4.3125 3.625 C2.3325 3.625 0.3525 3.625 -1.6875 3.625 C-2.0175 2.965 -2.3475 2.305 -2.6875 1.625 C-4.3375 1.625 -5.9875 1.625 -7.6875 1.625 C-4.33422361 -0.61051759 -3.78006343 -0.54783528 0 0 Z " fill="#8E733C" transform="translate(49.6875,49.375)"/>
<path d="M0 0 C2.875 0.0625 2.875 0.0625 6 1 C8.375 3.5625 8.375 3.5625 10 6 C7.13275314 5.42655063 6.1385485 5.1385485 4 3 C2.01178687 2.60235737 0.01055661 2.26224651 -2 2 C-1.34 1.34 -0.68 0.68 0 0 Z " fill="#A18D6C" transform="translate(63,231)"/>
<path d="M0 0 C1.9375 0.6875 1.9375 0.6875 2.9375 2.6875 C-1.08054691 3.52848656 -4.08053543 3.74154945 -8.0625 2.6875 C-2.0625 -0.3125 -2.0625 -0.3125 0 0 Z " fill="#716346" transform="translate(240.0625,201.3125)"/>
<path d="M0 0 C2.64 1.98 5.28 3.96 8 6 C6.02 6.99 6.02 6.99 4 8 C0 3.375 0 3.375 0 0 Z " fill="#584418" transform="translate(81,251)"/>
<path d="M0 0 C3.3 0.33 6.6 0.66 10 1 C9.67 1.66 9.34 2.32 9 3 C6.03 3 3.06 3 0 3 C0 2.01 0 1.02 0 0 Z " fill="#634522" transform="translate(180,193)"/>
<path d="M0 0 C3.3 0 6.6 0 10 0 C6.71536341 2.18975773 3.79303725 2.99806563 0 4 C0 2.68 0 1.36 0 0 Z " fill="#674E20" transform="translate(200,247)"/>
<path d="M0 0 C0 2.64 0 5.28 0 8 C-0.33 7.34 -0.66 6.68 -1 6 C-1.99 5.67 -2.98 5.34 -4 5 C-4 3.68 -4 2.36 -4 1 C-1 0 -1 0 0 0 Z " fill="#85663C" transform="translate(128,230)"/>
<path d="M0 0 C1.98 0.495 1.98 0.495 4 1 C4 2.98 4 4.96 4 7 C3.01 7.495 3.01 7.495 2 8 C1.87625 7.360625 1.7525 6.72125 1.625 6.0625 C1.315625 5.0415625 1.315625 5.0415625 1 4 C0.34 3.67 -0.32 3.34 -1 3 C-0.67 2.01 -0.34 1.02 0 0 Z " fill="#6D4F20" transform="translate(222,223)"/>
<path d="M0 0 C0.598125 0.763125 1.19625 1.52625 1.8125 2.3125 C3.46959332 4.3483575 5.10297674 6.1978279 7 8 C6.01 8.33 5.02 8.66 4 9 C0.06153846 5.67692308 0.06153846 5.67692308 -0.25 2.25 C-0.1675 1.5075 -0.085 0.765 0 0 Z " fill="#9F8164" transform="translate(90,240)"/>
<path d="M0 0 C3.63 0 7.26 0 11 0 C5.88275349 2.55862325 4.57740723 3.09123185 -1 2 C-0.67 1.34 -0.34 0.68 0 0 Z " fill="#3D2304" transform="translate(49,261)"/>
<path d="M0 0 C0.33 0 0.66 0 1 0 C1 1.98 1 3.96 1 6 C0.67 6 0.34 6 0 6 C-0.33 7.98 -0.66 9.96 -1 12 C-1.33 12 -1.66 12 -2 12 C-2 8.7 -2 5.4 -2 2 C-1.34 2 -0.68 2 0 2 C0 1.34 0 0.68 0 0 Z " fill="#705A39" transform="translate(188,238)"/>
<path d="M0 0 C0.66 0 1.32 0 2 0 C1.8125 1.8125 1.8125 1.8125 1 4 C-1.4375 5.8125 -1.4375 5.8125 -4 7 C-4.66 6.67 -5.32 6.34 -6 6 C-5.195625 5.38125 -4.39125 4.7625 -3.5625 4.125 C-0.96125481 2.25835959 -0.96125481 2.25835959 0 0 Z " fill="#6B5328" transform="translate(234,238)"/>
<path d="M0 0 C3.73487777 0.4979837 5.81237635 0.87491756 9 3 C6.03 3 3.06 3 0 3 C0 2.01 0 1.02 0 0 Z " fill="#BEAA6C" transform="translate(190,234)"/>
<path d="M0 0 C0.99 0.33 1.98 0.66 3 1 C3 3.97 3 6.94 3 10 C0.64551835 7.44931155 0.01672076 6.28982642 -0.1875 2.75 C-0.125625 1.8425 -0.06375 0.935 0 0 Z " fill="#7D6640" transform="translate(190,173)"/>
<path d="M0 0 C0.66 0.99 1.32 1.98 2 3 C0.75 4.5625 0.75 4.5625 -1 6 C-3.1875 5.6875 -3.1875 5.6875 -5 5 C-3.35 3.35 -1.7 1.7 0 0 Z " fill="#725725" transform="translate(62,91)"/>
<path d="M0 0 C-1.04874998 2.62187494 -1.64931313 3.79371361 -4.125 5.25 C-4.74375 5.4975 -5.3625 5.745 -6 6 C-5.6875 4.125 -5.6875 4.125 -5 2 C-2 0 -2 0 0 0 Z " fill="#6E5025" transform="translate(179,240)"/>
<path d="M0 0 C3.3 0.33 6.6 0.66 10 1 C10 1.66 10 2.32 10 3 C7.03 3 4.06 3 1 3 C0.67 2.01 0.34 1.02 0 0 Z " fill="#A6876A" transform="translate(36,229)"/>
<path d="M0 0 C0.99 0 1.98 0 3 0 C3.33 2.31 3.66 4.62 4 7 C3.01 6.67 2.02 6.34 1 6 C0.67 4.02 0.34 2.04 0 0 Z " fill="#885C1F" transform="translate(23,82)"/>
<path d="M0 0 C0.33 0.66 0.66 1.32 1 2 C-1.97 2 -4.94 2 -8 2 C-7 0 -7 0 -5.125 -0.6875 C-3 -1 -3 -1 0 0 Z " fill="#79611A" transform="translate(74,23)"/>
<path d="M0 0 C3.3 0 6.6 0 10 0 C9.67 0.99 9.34 1.98 9 3 C8.01 3 7.02 3 6 3 C6 2.34 6 1.68 6 1 C4.02 1 2.04 1 0 1 C0 0.67 0 0.34 0 0 Z " fill="#473816" transform="translate(174,261)"/>
<path d="M0 0 C-2.8125 1.5625 -2.8125 1.5625 -6 3 C-6.99 2.67 -7.98 2.34 -9 2 C-8.67 1.34 -8.34 0.68 -8 0 C-4.71585695 -0.95067299 -3.30306592 -1.10102197 0 0 Z " fill="#6A5121" transform="translate(55,60)"/>
</svg>
